<svg xmlns="http://www.w3.org/2000/svg" xmlns:xlink="http://www.w3.org/1999/xlink" width="500" zoomAndPan="magnify" viewBox="0 0 375 374.999991" height="500" preserveAspectRatio="xMidYMid meet" version="1.0"><defs><g/><clipPath id="7c6862a812"><path d="M 119.453125 129.25 L 291.203125 129.25 L 291.203125 134.5 L 119.453125 134.5 Z M 119.453125 129.25 " clip-rule="nonzero"/></clipPath><clipPath id="942d323f85"><path d="M 56.746094 242.027344 L 228.496094 242.027344 L 228.496094 247.277344 L 56.746094 247.277344 Z M 56.746094 242.027344 " clip-rule="nonzero"/></clipPath></defs><g fill="#faf6e4" fill-opacity="1"><g transform="translate(98.941404, 183.602654)"><g><path d="M 14.765625 0 L 14.765625 -24.957031 L 22.851562 -24.957031 L 22.851562 -30.730469 L 0.785156 -30.730469 L 0.785156 -24.957031 L 8.375 -24.957031 L 8.375 0 Z M 14.765625 0 "/></g></g></g><g fill="#faf6e4" fill-opacity="1"><g transform="translate(130.827686, 183.602654)"><g><path d="M 12.539062 -5.320312 L 17.574219 0 L 26.070312 0 L 19.429688 -7.09375 C 23.71875 -9.074219 26.359375 -13.117188 26.359375 -18.644531 C 26.359375 -25.328125 20.832031 -30.730469 13.613281 -30.730469 L 2.929688 -30.730469 L 2.929688 0 L 9.324219 0 L 9.324219 -5.320312 Z M 9.324219 -11.097656 L 9.324219 -24.957031 L 13.199219 -24.957031 C 17.574219 -24.957031 19.800781 -21.902344 19.800781 -18.148438 C 19.800781 -13.570312 17.035156 -11.097656 11.960938 -11.097656 Z M 9.324219 -11.097656 "/></g></g></g><g fill="#faf6e4" fill-opacity="1"><g transform="translate(166.921468, 183.602654)"><g><path d="M 9.324219 -30.730469 L 2.929688 -30.730469 L 2.929688 0 L 9.324219 0 Z M 9.324219 -30.730469 "/></g></g></g><g fill="#faf6e4" fill-opacity="1"><g transform="translate(187.422733, 183.602654)"><g><path d="M 9.324219 0 L 9.324219 -4.660156 L 12.992188 -4.660156 C 20.707031 -4.660156 26.277344 -10.476562 26.277344 -18.355469 C 26.277344 -24.585938 20.953125 -30.730469 13.40625 -30.730469 L 2.929688 -30.730469 L 2.929688 0 Z M 9.324219 -10.476562 L 9.324219 -24.957031 L 13.199219 -24.957031 C 17.367188 -24.957031 19.71875 -21.285156 19.71875 -17.695312 C 19.71875 -13.734375 17.285156 -10.476562 12.828125 -10.476562 Z M 9.324219 -10.476562 "/></g></g></g><g fill="#faf6e4" fill-opacity="1"><g transform="translate(223.186513, 183.602654)"><g/></g></g><g fill="#faf6e4" fill-opacity="1"><g transform="translate(248.802783, 183.602654)"><g><path d="M 26.769531 -13.652344 L 17.695312 -13.652344 L 17.695312 -10.023438 C 17.695312 -7.300781 15.757812 -5.402344 13.078125 -5.402344 C 9.984375 -5.402344 7.714844 -7.714844 7.714844 -10.4375 C 7.714844 -13.449219 9.695312 -15.550781 12.457031 -15.550781 L 17.242188 -15.550781 L 12.167969 -25.328125 L 19.429688 -25.328125 L 19.429688 -30.730469 L 3.09375 -30.730469 L 8.375 -20.789062 C 4.125 -19.222656 1.484375 -15.386719 1.484375 -10.890625 C 1.484375 -4.332031 6.558594 0.535156 13.078125 0.535156 C 18.519531 0.535156 22.933594 -3.421875 23.59375 -8.621094 L 26.769531 -8.621094 Z M 26.769531 -13.652344 "/></g></g></g><g fill="#faf6e4" fill-opacity="1"><g transform="translate(86.085936, 225.602652)"><g><path d="M 14.8125 0 L 14.8125 -25.035156 L 22.921875 -25.035156 L 22.921875 -30.828125 L 0.785156 -30.828125 L 0.785156 -25.035156 L 8.398438 -25.035156 L 8.398438 0 Z M 14.8125 0 "/></g></g></g><g fill="#faf6e4" fill-opacity="1"><g transform="translate(118.066097, 225.602652)"><g><path d="M 12.578125 -5.335938 L 17.625 0 L 26.152344 0 L 19.488281 -7.117188 C 23.792969 -9.101562 26.441406 -13.15625 26.441406 -18.703125 C 26.441406 -25.40625 20.894531 -30.828125 13.65625 -30.828125 L 2.9375 -30.828125 L 2.9375 0 L 9.351562 0 L 9.351562 -5.335938 Z M 9.351562 -11.128906 L 9.351562 -25.035156 L 13.242188 -25.035156 C 17.625 -25.035156 19.859375 -21.972656 19.859375 -18.207031 C 19.859375 -13.613281 17.089844 -11.128906 12 -11.128906 Z M 9.351562 -11.128906 "/></g></g></g><g fill="#faf6e4" fill-opacity="1"><g transform="translate(154.265706, 225.602652)"><g><path d="M 25.324219 0 L 32.316406 0 L 16.011719 -31.363281 L -0.25 0 L 6.371094 0 L 8.359375 -4.136719 L 23.296875 -4.136719 Z M 15.765625 -19.53125 L 20.480469 -9.929688 L 11.128906 -9.929688 Z M 15.765625 -19.53125 "/></g></g></g><g fill="#faf6e4" fill-opacity="1"><g transform="translate(194.602035, 225.602652)"><g><path d="M 16.46875 -12.746094 L 7.117188 -30.828125 L -0.25 -30.828125 L 16.21875 0.539062 L 31.902344 -30.828125 L 25.28125 -30.828125 Z M 16.46875 -12.746094 "/></g></g></g><g fill="#faf6e4" fill-opacity="1"><g transform="translate(234.524689, 225.602652)"><g><path d="M 22.054688 0 L 22.054688 -5.792969 L 9.351562 -5.792969 L 9.351562 -13.53125 L 20.9375 -13.53125 L 20.9375 -19.28125 L 9.351562 -19.28125 L 9.351562 -25.035156 L 19.324219 -25.035156 L 19.324219 -30.828125 L 2.9375 -30.828125 L 2.9375 0 Z M 22.054688 0 "/></g></g></g><g fill="#faf6e4" fill-opacity="1"><g transform="translate(266.504847, 225.602652)"><g><path d="M 2.9375 -30.828125 L 2.9375 0 L 21.765625 0 L 21.765625 -5.792969 L 9.351562 -5.792969 L 9.351562 -30.828125 Z M 2.9375 -30.828125 "/></g></g></g><g fill="#faf6e4" fill-opacity="1"><g transform="translate(63.943851, 133.749982)"><g><path d="M 4.40625 -0.921875 L 4.40625 0 L 0.578125 0 L 0.578125 -4.9375 L 4.3125 -4.9375 L 4.3125 -4.015625 L 1.71875 -4.015625 L 1.71875 -2.953125 L 4.015625 -2.953125 L 4.015625 -2.0625 L 1.71875 -2.0625 L 1.71875 -0.921875 Z M 4.40625 -0.921875 "/></g></g></g><g fill="#faf6e4" fill-opacity="1"><g transform="translate(70.070622, 133.749982)"><g><path d="M 2.203125 0.078125 C 1.816406 0.078125 1.441406 0.0234375 1.078125 -0.078125 C 0.710938 -0.179688 0.421875 -0.316406 0.203125 -0.484375 L 0.578125 -1.34375 C 0.796875 -1.1875 1.050781 -1.0625 1.34375 -0.96875 C 1.632812 -0.875 1.925781 -0.828125 2.21875 -0.828125 C 2.539062 -0.828125 2.78125 -0.875 2.9375 -0.96875 C 3.09375 -1.070312 3.171875 -1.203125 3.171875 -1.359375 C 3.171875 -1.472656 3.125 -1.566406 3.03125 -1.640625 C 2.9375 -1.722656 2.816406 -1.785156 2.671875 -1.828125 C 2.523438 -1.878906 2.332031 -1.9375 2.09375 -2 C 1.71875 -2.082031 1.410156 -2.164062 1.171875 -2.25 C 0.929688 -2.34375 0.722656 -2.488281 0.546875 -2.6875 C 0.378906 -2.882812 0.296875 -3.148438 0.296875 -3.484375 C 0.296875 -3.765625 0.375 -4.019531 0.53125 -4.25 C 0.6875 -4.488281 0.921875 -4.675781 1.234375 -4.8125 C 1.546875 -4.945312 1.925781 -5.015625 2.375 -5.015625 C 2.6875 -5.015625 2.992188 -4.976562 3.296875 -4.90625 C 3.597656 -4.832031 3.863281 -4.722656 4.09375 -4.578125 L 3.734375 -3.71875 C 3.273438 -3.96875 2.820312 -4.09375 2.375 -4.09375 C 2.050781 -4.09375 1.8125 -4.039062 1.65625 -3.9375 C 1.507812 -3.84375 1.4375 -3.707031 1.4375 -3.53125 C 1.4375 -3.363281 1.519531 -3.238281 1.6875 -3.15625 C 1.863281 -3.070312 2.132812 -2.992188 2.5 -2.921875 C 2.875 -2.828125 3.179688 -2.734375 3.421875 -2.640625 C 3.660156 -2.554688 3.863281 -2.414062 4.03125 -2.21875 C 4.207031 -2.03125 4.296875 -1.769531 4.296875 -1.4375 C 4.296875 -1.15625 4.21875 -0.898438 4.0625 -0.671875 C 3.90625 -0.441406 3.664062 -0.257812 3.34375 -0.125 C 3.03125 0.0078125 2.648438 0.078125 2.203125 0.078125 Z M 2.203125 0.078125 "/></g></g></g><g fill="#faf6e4" fill-opacity="1"><g transform="translate(75.965352, 133.749982)"><g><path d="M 1.609375 -4 L 0.03125 -4 L 0.03125 -4.9375 L 4.328125 -4.9375 L 4.328125 -4 L 2.75 -4 L 2.75 0 L 1.609375 0 Z M 1.609375 -4 "/></g></g></g><g fill="#faf6e4" fill-opacity="1"><g transform="translate(81.719457, 133.749982)"><g><path d="M 0.921875 0.0625 C 0.734375 0.0625 0.570312 -0.00390625 0.4375 -0.140625 C 0.300781 -0.273438 0.234375 -0.441406 0.234375 -0.640625 C 0.234375 -0.835938 0.300781 -1 0.4375 -1.125 C 0.570312 -1.25 0.734375 -1.3125 0.921875 -1.3125 C 1.117188 -1.3125 1.28125 -1.25 1.40625 -1.125 C 1.539062 -1 1.609375 -0.835938 1.609375 -0.640625 C 1.609375 -0.441406 1.539062 -0.273438 1.40625 -0.140625 C 1.28125 -0.00390625 1.117188 0.0625 0.921875 0.0625 Z M 0.921875 0.0625 "/></g></g></g><g fill="#faf6e4" fill-opacity="1"><g transform="translate(84.970408, 133.749982)"><g/></g></g><g fill="#faf6e4" fill-opacity="1"><g transform="translate(88.369023, 133.749982)"><g><path d="M 3.953125 -0.9375 L 3.953125 0 L 0.234375 0 L 0.234375 -0.734375 L 2.140625 -2.53125 C 2.335938 -2.726562 2.472656 -2.894531 2.546875 -3.03125 C 2.617188 -3.164062 2.65625 -3.304688 2.65625 -3.453125 C 2.65625 -3.640625 2.585938 -3.785156 2.453125 -3.890625 C 2.316406 -4.003906 2.117188 -4.0625 1.859375 -4.0625 C 1.640625 -4.0625 1.441406 -4.019531 1.265625 -3.9375 C 1.097656 -3.851562 0.957031 -3.726562 0.84375 -3.5625 L 0 -4.09375 C 0.195312 -4.382812 0.460938 -4.609375 0.796875 -4.765625 C 1.140625 -4.929688 1.53125 -5.015625 1.96875 -5.015625 C 2.332031 -5.015625 2.648438 -4.953125 2.921875 -4.828125 C 3.203125 -4.710938 3.414062 -4.546875 3.5625 -4.328125 C 3.71875 -4.109375 3.796875 -3.851562 3.796875 -3.5625 C 3.796875 -3.289062 3.738281 -3.035156 3.625 -2.796875 C 3.507812 -2.566406 3.289062 -2.300781 2.96875 -2 L 1.84375 -0.9375 Z M 3.953125 -0.9375 "/></g></g></g><g fill="#faf6e4" fill-opacity="1"><g transform="translate(93.926256, 133.749982)"><g><path d="M 2.390625 0.078125 C 1.984375 0.078125 1.617188 -0.0195312 1.296875 -0.21875 C 0.972656 -0.414062 0.722656 -0.707031 0.546875 -1.09375 C 0.367188 -1.476562 0.28125 -1.9375 0.28125 -2.46875 C 0.28125 -3 0.367188 -3.453125 0.546875 -3.828125 C 0.722656 -4.210938 0.972656 -4.503906 1.296875 -4.703125 C 1.617188 -4.910156 1.984375 -5.015625 2.390625 -5.015625 C 2.796875 -5.015625 3.15625 -4.910156 3.46875 -4.703125 C 3.789062 -4.503906 4.039062 -4.210938 4.21875 -3.828125 C 4.40625 -3.453125 4.5 -3 4.5 -2.46875 C 4.5 -1.9375 4.40625 -1.476562 4.21875 -1.09375 C 4.039062 -0.707031 3.789062 -0.414062 3.46875 -0.21875 C 3.15625 -0.0195312 2.796875 0.078125 2.390625 0.078125 Z M 2.390625 -0.875 C 2.691406 -0.875 2.925781 -1.003906 3.09375 -1.265625 C 3.269531 -1.523438 3.359375 -1.925781 3.359375 -2.46875 C 3.359375 -3.007812 3.269531 -3.40625 3.09375 -3.65625 C 2.925781 -3.914062 2.691406 -4.046875 2.390625 -4.046875 C 2.085938 -4.046875 1.851562 -3.914062 1.6875 -3.65625 C 1.519531 -3.40625 1.4375 -3.007812 1.4375 -2.46875 C 1.4375 -1.925781 1.519531 -1.523438 1.6875 -1.265625 C 1.851562 -1.003906 2.085938 -0.875 2.390625 -0.875 Z M 2.390625 -0.875 "/></g></g></g><g fill="#faf6e4" fill-opacity="1"><g transform="translate(100.109276, 133.749982)"><g><path d="M 3.953125 -0.9375 L 3.953125 0 L 0.234375 0 L 0.234375 -0.734375 L 2.140625 -2.53125 C 2.335938 -2.726562 2.472656 -2.894531 2.546875 -3.03125 C 2.617188 -3.164062 2.65625 -3.304688 2.65625 -3.453125 C 2.65625 -3.640625 2.585938 -3.785156 2.453125 -3.890625 C 2.316406 -4.003906 2.117188 -4.0625 1.859375 -4.0625 C 1.640625 -4.0625 1.441406 -4.019531 1.265625 -3.9375 C 1.097656 -3.851562 0.957031 -3.726562 0.84375 -3.5625 L 0 -4.09375 C 0.195312 -4.382812 0.460938 -4.609375 0.796875 -4.765625 C 1.140625 -4.929688 1.53125 -5.015625 1.96875 -5.015625 C 2.332031 -5.015625 2.648438 -4.953125 2.921875 -4.828125 C 3.203125 -4.710938 3.414062 -4.546875 3.5625 -4.328125 C 3.71875 -4.109375 3.796875 -3.851562 3.796875 -3.5625 C 3.796875 -3.289062 3.738281 -3.035156 3.625 -2.796875 C 3.507812 -2.566406 3.289062 -2.300781 2.96875 -2 L 1.84375 -0.9375 Z M 3.953125 -0.9375 "/></g></g></g><g fill="#faf6e4" fill-opacity="1"><g transform="translate(105.666509, 133.749982)"><g><path d="M 2.578125 -2.921875 C 3.015625 -2.847656 3.347656 -2.6875 3.578125 -2.4375 C 3.804688 -2.1875 3.921875 -1.878906 3.921875 -1.515625 C 3.921875 -1.222656 3.84375 -0.957031 3.6875 -0.71875 C 3.539062 -0.476562 3.3125 -0.285156 3 -0.140625 C 2.695312 0.00390625 2.320312 0.078125 1.875 0.078125 C 1.53125 0.078125 1.1875 0.0351562 0.84375 -0.046875 C 0.507812 -0.140625 0.226562 -0.269531 0 -0.4375 L 0.4375 -1.3125 C 0.625 -1.175781 0.835938 -1.066406 1.078125 -0.984375 C 1.328125 -0.910156 1.582031 -0.875 1.84375 -0.875 C 2.132812 -0.875 2.359375 -0.925781 2.515625 -1.03125 C 2.679688 -1.144531 2.765625 -1.304688 2.765625 -1.515625 C 2.765625 -1.910156 2.457031 -2.109375 1.84375 -2.109375 L 1.328125 -2.109375 L 1.328125 -2.875 L 2.34375 -4.015625 L 0.234375 -4.015625 L 0.234375 -4.9375 L 3.6875 -4.9375 L 3.6875 -4.1875 Z M 2.578125 -2.921875 "/></g></g></g><g fill="#faf6e4" fill-opacity="1"><g transform="translate(264.442283, 245.380971)"><g><path d="M 3.828125 -1.0625 L 1.546875 -1.0625 L 1.109375 0 L -0.0625 0 L 2.140625 -4.9375 L 3.265625 -4.9375 L 5.46875 0 L 4.265625 0 Z M 3.46875 -1.921875 L 2.6875 -3.8125 L 1.90625 -1.921875 Z M 3.46875 -1.921875 "/></g></g></g><g fill="#faf6e4" fill-opacity="1"><g transform="translate(271.237023, 245.380971)"><g><path d="M 3.921875 -2.546875 L 4.96875 -2.546875 L 4.96875 -0.546875 C 4.695312 -0.335938 4.382812 -0.179688 4.03125 -0.078125 C 3.675781 0.0234375 3.320312 0.078125 2.96875 0.078125 C 2.457031 0.078125 1.992188 -0.03125 1.578125 -0.25 C 1.171875 -0.46875 0.851562 -0.769531 0.625 -1.15625 C 0.394531 -1.539062 0.28125 -1.976562 0.28125 -2.46875 C 0.28125 -2.957031 0.394531 -3.394531 0.625 -3.78125 C 0.851562 -4.164062 1.175781 -4.46875 1.59375 -4.6875 C 2.007812 -4.90625 2.472656 -5.015625 2.984375 -5.015625 C 3.421875 -5.015625 3.8125 -4.941406 4.15625 -4.796875 C 4.507812 -4.648438 4.804688 -4.441406 5.046875 -4.171875 L 4.3125 -3.484375 C 3.96875 -3.859375 3.546875 -4.046875 3.046875 -4.046875 C 2.734375 -4.046875 2.453125 -3.976562 2.203125 -3.84375 C 1.960938 -3.71875 1.773438 -3.535156 1.640625 -3.296875 C 1.503906 -3.054688 1.4375 -2.78125 1.4375 -2.46875 C 1.4375 -2.164062 1.503906 -1.894531 1.640625 -1.65625 C 1.773438 -1.414062 1.960938 -1.226562 2.203125 -1.09375 C 2.441406 -0.957031 2.71875 -0.890625 3.03125 -0.890625 C 3.363281 -0.890625 3.660156 -0.957031 3.921875 -1.09375 Z M 3.921875 -2.546875 "/></g></g></g><g fill="#faf6e4" fill-opacity="1"><g transform="translate(278.066919, 245.380971)"><g><path d="M 4.40625 -0.921875 L 4.40625 0 L 0.578125 0 L 0.578125 -4.9375 L 4.3125 -4.9375 L 4.3125 -4.015625 L 1.71875 -4.015625 L 1.71875 -2.953125 L 4.015625 -2.953125 L 4.015625 -2.0625 L 1.71875 -2.0625 L 1.71875 -0.921875 Z M 4.40625 -0.921875 "/></g></g></g><g fill="#faf6e4" fill-opacity="1"><g transform="translate(284.193691, 245.380971)"><g><path d="M 5.109375 -4.9375 L 5.109375 0 L 4.171875 0 L 1.71875 -3 L 1.71875 0 L 0.578125 0 L 0.578125 -4.9375 L 1.53125 -4.9375 L 3.984375 -1.9375 L 3.984375 -4.9375 Z M 5.109375 -4.9375 "/></g></g></g><g fill="#faf6e4" fill-opacity="1"><g transform="translate(291.283746, 245.380971)"><g><path d="M 2.953125 0.078125 C 2.441406 0.078125 1.984375 -0.03125 1.578125 -0.25 C 1.171875 -0.46875 0.851562 -0.769531 0.625 -1.15625 C 0.394531 -1.539062 0.28125 -1.976562 0.28125 -2.46875 C 0.28125 -2.957031 0.394531 -3.394531 0.625 -3.78125 C 0.851562 -4.164062 1.171875 -4.46875 1.578125 -4.6875 C 1.984375 -4.90625 2.441406 -5.015625 2.953125 -5.015625 C 3.378906 -5.015625 3.765625 -4.9375 4.109375 -4.78125 C 4.453125 -4.632812 4.742188 -4.421875 4.984375 -4.140625 L 4.25 -3.46875 C 3.914062 -3.851562 3.503906 -4.046875 3.015625 -4.046875 C 2.703125 -4.046875 2.425781 -3.976562 2.1875 -3.84375 C 1.945312 -3.707031 1.757812 -3.519531 1.625 -3.28125 C 1.5 -3.039062 1.4375 -2.769531 1.4375 -2.46875 C 1.4375 -2.164062 1.5 -1.894531 1.625 -1.65625 C 1.757812 -1.414062 1.945312 -1.226562 2.1875 -1.09375 C 2.425781 -0.957031 2.703125 -0.890625 3.015625 -0.890625 C 3.503906 -0.890625 3.914062 -1.082031 4.25 -1.46875 L 4.984375 -0.796875 C 4.742188 -0.503906 4.453125 -0.285156 4.109375 -0.140625 C 3.765625 0.00390625 3.378906 0.078125 2.953125 0.078125 Z M 2.953125 0.078125 "/></g></g></g><g fill="#faf6e4" fill-opacity="1"><g transform="translate(297.846457, 245.380971)"><g><path d="M 2.953125 -1.75 L 2.953125 0 L 1.8125 0 L 1.8125 -1.765625 L -0.09375 -4.9375 L 1.109375 -4.9375 L 2.4375 -2.734375 L 3.75 -4.9375 L 4.875 -4.9375 Z M 2.953125 -1.75 "/></g></g></g><g clip-path="url(#7c6862a812)"><path fill="#fab549" d="M 119.453125 129.25 L 291.203125 129.25 L 291.203125 134.5 L 119.453125 134.5 Z M 119.453125 129.25 " fill-opacity="1" fill-rule="nonzero"/></g><g clip-path="url(#942d323f85)"><path fill="#fab549" d="M 56.746094 242.027344 L 228.496094 242.027344 L 228.496094 247.277344 L 56.746094 247.277344 Z M 56.746094 242.027344 " fill-opacity="1" fill-rule="nonzero"/></g></svg>