<svg xmlns="http://www.w3.org/2000/svg" xmlns:xlink="http://www.w3.org/1999/xlink" width="500" zoomAndPan="magnify" viewBox="0 0 375 374.999991" height="500" preserveAspectRatio="xMidYMid meet" version="1.0"><defs><g/><clipPath id="f287f3c92a"><path d="M 131.175781 132.160156 L 243.675781 132.160156 L 243.675781 243.160156 L 131.175781 243.160156 Z M 131.175781 132.160156 " clip-rule="nonzero"/></clipPath><clipPath id="e61e808a04"><path d="M 250 161 L 281 161 L 281 197 L 250 197 Z M 250 161 " clip-rule="nonzero"/></clipPath><clipPath id="e41fbbdd80"><path d="M 281.066406 196.347656 L 251.070312 196.898438 L 250.421875 161.65625 L 280.417969 161.101562 Z M 281.066406 196.347656 " clip-rule="nonzero"/></clipPath><clipPath id="6677a6c6c7"><path d="M 281.066406 196.347656 L 251.070312 196.898438 L 250.421875 161.65625 L 280.417969 161.101562 Z M 281.066406 196.347656 " clip-rule="nonzero"/></clipPath><clipPath id="c98e154e65"><path d="M 281.066406 196.347656 L 251.070312 196.898438 L 250.421875 161.65625 L 280.417969 161.101562 Z M 281.066406 196.347656 " clip-rule="nonzero"/></clipPath></defs><g fill="#093064" fill-opacity="1"><g transform="translate(117.753206, 208.918045)"><g><path d="M -24.003906 -9.992188 C -23.925781 -10.117188 -23.964844 -10.285156 -24.089844 -10.359375 C -25.394531 -11.117188 -27.113281 -11.210938 -28.207031 -10.605469 C -28.242188 -10.597656 -28.265625 -10.554688 -28.300781 -10.546875 C -28.335938 -10.539062 -28.394531 -10.488281 -28.425781 -10.480469 C -29.128906 -10 -29.441406 -9.222656 -29.304688 -8.335938 C -29.117188 -7.074219 -27.675781 -4.972656 -25.925781 -3.367188 C -24.667969 -2.210938 -22.113281 -0.332031 -19.546875 -0.683594 C -18.691406 -0.808594 -18.042969 -1.207031 -17.597656 -1.875 C -17.152344 -2.546875 -16.988281 -3.359375 -16.953125 -4.109375 C -16.105469 -2.753906 -14.730469 -1.835938 -13.441406 -1.007812 L -13.226562 -0.84375 C -10.773438 0.738281 -7.683594 1.574219 -5.46875 1.234375 C -3.425781 0.902344 -2.003906 0.183594 -1.269531 -0.90625 C -0.613281 -1.871094 -0.480469 -3.136719 -0.847656 -4.710938 C -1.503906 -7.523438 -4.515625 -10.460938 -10.078125 -13.722656 C -10.199219 -13.800781 -10.359375 -13.730469 -10.402344 -13.613281 C -10.488281 -13.523438 -10.449219 -13.355469 -10.324219 -13.277344 C -5.136719 -10.246094 -2.148438 -7.410156 -1.414062 -4.863281 C -1.414062 -4.863281 -1.292969 -4.042969 -1.949219 -3.21875 C -2.714844 -2.265625 -4.058594 -1.667969 -6.015625 -1.425781 C -8.84375 -1.121094 -11.460938 -2.207031 -13.171875 -3.1875 C -15.164062 -4.3125 -16.699219 -5.757812 -17.210938 -6.59375 L -17.21875 -6.625 L -17.253906 -6.617188 L -17.261719 -6.652344 C -17.292969 -6.644531 -17.300781 -6.675781 -17.300781 -6.675781 C -17.335938 -6.667969 -17.34375 -6.703125 -17.34375 -6.703125 L -17.410156 -6.6875 C -17.410156 -6.6875 -17.417969 -6.722656 -17.453125 -6.714844 L -17.519531 -6.699219 L -17.542969 -6.65625 L -17.578125 -6.648438 C -17.609375 -6.640625 -17.609375 -6.640625 -17.601562 -6.605469 L -17.636719 -6.597656 C -17.628906 -6.566406 -17.628906 -6.566406 -17.664062 -6.558594 L -17.65625 -6.523438 L -17.679688 -6.484375 L -17.671875 -6.449219 C -17.652344 -6.066406 -17.609375 -5.722656 -17.5 -5.394531 C -17.460938 -5.085938 -17.441406 -4.703125 -17.457031 -4.308594 C -17.527344 -3.695312 -17.808594 -3.238281 -18.289062 -3.023438 C -19.273438 -2.546875 -21.035156 -2.984375 -23.246094 -4.304688 C -26.453125 -6.246094 -28.171875 -8.777344 -28.15625 -9.769531 C -28.132812 -9.984375 -28.082031 -10.066406 -27.992188 -10.125 C -27.054688 -10.660156 -25.523438 -10.59375 -24.339844 -9.914062 C -24.214844 -9.835938 -24.082031 -9.867188 -24.003906 -9.992188 Z M -24.003906 -9.992188 "/></g></g></g><g fill="#093064" fill-opacity="1"><g transform="translate(114.641618, 195.16427)"><g><path d="M -3.980469 -10.054688 C -5.746094 -10.734375 -7.527344 -11.136719 -7.527344 -11.136719 C -7.667969 -11.164062 -7.800781 -11.085938 -7.828125 -10.945312 C -7.851562 -10.808594 -7.773438 -10.675781 -7.636719 -10.648438 C -6.585938 -10.40625 -4.585938 -9.84375 -2.988281 -9.082031 C -2.878906 -8.984375 -2.195312 -8.546875 -2.15625 -7.960938 C -2.054688 -6.347656 -2.992188 -4.808594 -4.777344 -3.625 L -4.976562 -3.511719 C -9.347656 -5.578125 -13.125 -6.441406 -13.160156 -6.4375 C -13.296875 -6.464844 -13.429688 -6.386719 -13.457031 -6.25 C -13.515625 -6.105469 -13.40625 -5.976562 -13.265625 -5.949219 C -13.230469 -5.953125 -9.664062 -5.144531 -5.476562 -3.203125 C -7.171875 -2.234375 -9.40625 -1.609375 -11.808594 -1.425781 C -12.082031 -1.40625 -12.3125 -1.253906 -12.46875 -1.003906 C -12.589844 -0.71875 -12.570312 -0.410156 -12.382812 -0.179688 L -11.964844 0.480469 C -11.472656 1.171875 -10.65625 1.535156 -9.804688 1.34375 C -8.34375 1.011719 -5.535156 0.210938 -3.261719 -1.414062 C -3.097656 -1.5625 -2.933594 -1.675781 -2.765625 -1.789062 C -1.125 -0.894531 0.496094 0.210938 1.988281 1.492188 C 2.097656 1.589844 2.269531 1.578125 2.367188 1.46875 C 2.398438 1.398438 2.429688 1.363281 2.425781 1.292969 C 2.421875 1.226562 2.382812 1.160156 2.308594 1.09375 C 0.851562 -0.15625 -0.765625 -1.226562 -2.375 -2.160156 C -0.8125 -3.566406 -0.0859375 -5.199219 -0.195312 -6.914062 C -0.269531 -8.046875 -1.539062 -9.105469 -3.980469 -10.054688 Z M -3.980469 -10.054688 "/></g></g></g><g fill="#093064" fill-opacity="1"><g transform="translate(113.885257, 185.021606)"><g><path d="M -5.984375 -12.964844 C -4.671875 -11.367188 -3.21875 -9.347656 -2.359375 -7.652344 C -2.996094 -8.292969 -4.003906 -9.035156 -5.464844 -9.742188 C -8.148438 -11.039062 -10.09375 -11.339844 -11.253906 -10.644531 C -11.835938 -10.3125 -12.160156 -9.753906 -12.21875 -9.035156 C -12.253906 -8.625 -11.925781 -8.007812 -11.496094 -7.351562 L -11.433594 -7.277344 C -10.972656 -6.617188 -10.339844 -5.910156 -9.769531 -5.34375 C -9.003906 -4.589844 -8.195312 -3.933594 -7.414062 -3.382812 C -8.65625 -3.800781 -9.722656 -4.234375 -10.589844 -4.617188 C -11.183594 -4.910156 -11.878906 -4.863281 -12.429688 -4.460938 L -12.941406 -4.125 C -13.160156 -3.972656 -13.289062 -3.707031 -13.273438 -3.460938 C -13.226562 -3.183594 -13.074219 -2.960938 -12.84375 -2.839844 C -6.710938 0.195312 3.914062 2.296875 11.210938 2.980469 C 11.792969 3.027344 12.324219 2.863281 12.730469 2.554688 C 13.027344 2.304688 13.230469 1.941406 13.265625 1.527344 C 13.304688 1.050781 12.894531 0.601562 12.378906 0.558594 C 5.902344 0.0117188 -0.140625 -1.21875 -4.6875 -2.535156 C -7.074219 -3.285156 -9.796875 -5.828125 -11.03125 -7.554688 C -11.03125 -7.554688 -11.027344 -7.589844 -11.0625 -7.589844 C -11.273438 -7.953125 -11.386719 -8.65625 -11.09375 -8.871094 C -10.726562 -9.117188 -8.566406 -8.96875 -6.128906 -7.554688 C -3.890625 -6.296875 -2.269531 -4.609375 -2.386719 -4.066406 C -2.433594 -3.898438 -2.78125 -3.859375 -2.921875 -3.835938 C -4.300781 -3.847656 -5.960938 -5.058594 -5.996094 -5.058594 C -6.089844 -5.136719 -6.265625 -5.117188 -6.34375 -5.019531 C -6.421875 -4.921875 -6.402344 -4.75 -6.269531 -4.667969 C -6.207031 -4.59375 -4.484375 -3.3125 -2.929688 -3.351562 L -2.859375 -3.347656 C -2.546875 -3.355469 -2.269531 -3.402344 -1.980469 -3.550781 C -1.476562 -3.78125 -1.160156 -4.273438 -1.078125 -4.855469 L -1.066406 -4.957031 C -0.855469 -7.457031 -4.796875 -12.3125 -5.613281 -13.277344 C -5.707031 -13.390625 -5.847656 -13.402344 -5.953125 -13.339844 C -6.066406 -13.246094 -6.082031 -13.074219 -5.984375 -12.964844 Z M -5.984375 -12.964844 "/></g></g></g><g fill="#093064" fill-opacity="1"><g transform="translate(114.886618, 173.669654)"><g><path d="M -4.867188 -10.914062 C -4.960938 -10.792969 -4.925781 -10.644531 -4.804688 -10.546875 C -4.78125 -10.507812 -0.324219 -6.941406 1.339844 -4.28125 L 1.332031 -4.25 C 1.332031 -4.25 1.746094 -3.417969 1.285156 -2.921875 C 0.730469 -2.339844 -1.207031 -1.855469 -8.019531 -4.496094 C -8.011719 -4.53125 -8.011719 -4.53125 -8.046875 -4.539062 C -10.558594 -8.128906 -18.644531 -14.542969 -22.210938 -14.667969 L -22.253906 -14.640625 C -22.914062 -14.683594 -23.425781 -14.445312 -23.765625 -14.027344 C -24.160156 -13.515625 -24.261719 -12.902344 -24.09375 -12.230469 C -23.300781 -9.449219 -17.273438 -5.5 -8.769531 -2.234375 C -4.75 -0.667969 -1.828125 -0.0195312 0.167969 -0.28125 C 1.148438 -0.414062 1.6875 -0.929688 1.960938 -1.359375 C 2.128906 -1.640625 2.269531 -1.960938 2.335938 -2.265625 C 2.410156 -2.597656 2.425781 -2.984375 2.351562 -3.28125 C 2.222656 -3.664062 2.03125 -4.058594 1.777344 -4.503906 C 0.101562 -7.269531 -4.292969 -10.785156 -4.507812 -10.941406 C -4.625 -11.035156 -4.777344 -11 -4.867188 -10.914062 Z M -10.019531 -5.332031 C -20.402344 -9.648438 -22.785156 -12.71875 -22.539062 -13.824219 C -22.523438 -14.066406 -22.363281 -14.136719 -22.222656 -14.140625 C -19.039062 -14.03125 -11.742188 -8.355469 -8.921875 -4.875 Z M -10.019531 -5.332031 "/></g></g></g><g fill="#093064" fill-opacity="1"><g transform="translate(116.551022, 165.484257)"><g><path d="M -2.117188 -14.53125 C -2.238281 -14.5 -2.363281 -14.363281 -2.300781 -14.230469 C -2.3125 -14.199219 -1.660156 -11.097656 -3.078125 -8.945312 C -3.929688 -9.625 -4.882812 -10.121094 -5.796875 -10.421875 C -7.476562 -10.933594 -8.890625 -10.683594 -9.738281 -9.679688 C -10.257812 -9.0625 -10.488281 -8.339844 -10.394531 -7.5 C -10.183594 -5.882812 -8.773438 -4.042969 -6.519531 -2.40625 C -4.550781 -0.980469 -2.695312 -1.140625 -1.632812 -1.738281 C -1.023438 -2.101562 -0.613281 -2.609375 -0.386719 -3.222656 C -0.234375 -3.640625 -0.1875 -4.066406 -0.238281 -4.523438 C -0.375 -6.039062 -1.371094 -7.507812 -2.65625 -8.605469 C -2.449219 -8.96875 -2.238281 -9.332031 -2.085938 -9.75 C -1.929688 -10.171875 -1.816406 -10.679688 -1.734375 -11.199219 C -1.496094 -12.832031 -1.8125 -14.269531 -1.820312 -14.347656 C -1.847656 -14.464844 -2 -14.558594 -2.117188 -14.53125 Z M -0.929688 -5.328125 C -0.734375 -4.667969 -0.902344 -4.109375 -1.40625 -3.746094 C -2.152344 -3.214844 -3.71875 -3.132812 -5.785156 -4.589844 C -6.65625 -5.207031 -7.355469 -5.902344 -7.820312 -6.625 C -7.195312 -6.429688 -6.273438 -6.347656 -5.039062 -6.808594 C -4.238281 -7.097656 -3.570312 -7.511719 -3.050781 -8.128906 C -3.007812 -8.148438 -2.996094 -8.179688 -2.984375 -8.210938 C -2.039062 -7.386719 -1.277344 -6.375 -0.929688 -5.328125 Z M -3.375 -8.539062 C -3.386719 -8.507812 -3.398438 -8.476562 -3.441406 -8.457031 C -3.816406 -8.042969 -4.378906 -7.808594 -5.042969 -7.800781 C -6.554688 -7.769531 -8.210938 -8.75 -8.6875 -9.144531 C -8.683594 -9.253906 -8.660156 -9.316406 -8.636719 -9.382812 C -8.535156 -9.859375 -8.179688 -10.128906 -7.65625 -10.15625 C -7.011719 -10.210938 -6.363281 -10.082031 -5.941406 -9.925781 C -5.078125 -9.683594 -4.171875 -9.164062 -3.375 -8.539062 Z M -3.375 -8.539062 "/></g></g></g><g fill="#093064" fill-opacity="1"><g transform="translate(120.432582, 154.92556)"><g><path d="M -1.03125 -13.039062 C -1.15625 -12.949219 -1.160156 -12.796875 -1.074219 -12.671875 C 0.78125 -10.101562 1.867188 -7.632812 2.226562 -5.914062 C 2.234375 -5.636719 2.222656 -5.328125 2.066406 -5.179688 C 2.046875 -5.148438 1.984375 -5.105469 1.832031 -5.109375 C 0.847656 -5.175781 -1.425781 -7.113281 -2.90625 -8.851562 C -3.101562 -9.074219 -3.40625 -9.164062 -3.65625 -9.0625 C -3.933594 -8.980469 -4.144531 -8.742188 -4.167969 -8.480469 C -4.261719 -7.511719 -4.472656 -6.179688 -4.945312 -5.382812 C -5.144531 -5.019531 -5.347656 -4.855469 -5.550781 -4.847656 C -6.074219 -4.816406 -6.871094 -5.800781 -7.417969 -6.523438 C -7.800781 -7.046875 -8.472656 -7.253906 -9.078125 -6.996094 L -9.46875 -6.855469 C -9.75 -6.769531 -9.957031 -6.53125 -10.027344 -6.257812 C -10.097656 -5.984375 -10.0625 -5.6875 -9.867188 -5.46875 C -8.46875 -3.574219 -7.511719 -2.742188 -6.082031 -3.140625 C -4.886719 -3.472656 -4.101562 -5.351562 -3.796875 -6.203125 C -2.257812 -4.351562 -0.0820312 -2.664062 1.429688 -2.785156 C 1.941406 -2.859375 2.351562 -3.109375 2.597656 -3.5625 L 2.613281 -3.589844 C 2.921875 -4.167969 2.9375 -5.058594 2.695312 -6.128906 C 2.683594 -6.25 2.640625 -6.316406 2.628906 -6.363281 C 2.195312 -8.238281 1.03125 -10.632812 -0.679688 -12.964844 C -0.765625 -13.09375 -0.902344 -13.128906 -1.03125 -13.039062 Z M -1.03125 -13.039062 "/></g></g></g><g fill="#093064" fill-opacity="1"><g transform="translate(125.05385, 146.313654)"><g><path d="M 0.5625 -12.769531 C 0.445312 -12.726562 0.390625 -12.597656 0.414062 -12.453125 C 1.832031 -7.851562 2.054688 -5.523438 1.632812 -4 L 1.609375 -3.972656 C 1.386719 -3.371094 0.953125 -3.007812 0.367188 -2.964844 C -0.773438 -2.855469 -2.242188 -3.878906 -3.449219 -5.609375 C -3.15625 -6.246094 -2.042969 -8.835938 -3.179688 -11.191406 C -3.566406 -11.945312 -4.027344 -12.363281 -4.457031 -12.589844 C -4.542969 -12.652344 -4.671875 -12.703125 -4.777344 -12.738281 C -4.984375 -12.800781 -5.136719 -12.828125 -5.289062 -12.851562 C -6.011719 -12.910156 -6.722656 -12.578125 -7.125 -12.019531 C -8.054688 -10.738281 -8.109375 -7.972656 -5.59375 -4.0625 C -4.066406 -1.71875 -2.453125 -1.1875 -1.367188 -1.164062 C -0.03125 -1.128906 0.96875 -1.804688 1.394531 -2.386719 C 1.699219 -2.804688 1.917969 -3.285156 2.082031 -3.800781 C 2.082031 -3.800781 2.101562 -3.828125 2.074219 -3.851562 C 2.625 -5.660156 2.210938 -8.253906 0.90625 -12.605469 C 0.835938 -12.742188 0.726562 -12.820312 0.5625 -12.769531 Z M -3.84375 -6.234375 C -5.808594 -9.445312 -5.933594 -11.027344 -5.683594 -11.78125 C -5.625 -12.035156 -5.476562 -12.183594 -5.292969 -12.261719 L -4.949219 -12.265625 C -4.429688 -12.101562 -3.960938 -11.636719 -3.636719 -10.972656 C -2.746094 -9.09375 -3.421875 -6.992188 -3.800781 -6.121094 Z M -3.84375 -6.234375 "/></g></g></g><g fill="#093064" fill-opacity="1"><g transform="translate(130.45622, 138.650135)"><g/></g></g><g fill="#093064" fill-opacity="1"><g transform="translate(138.414857, 130.52184)"><g><path d="M 2.859375 -11.199219 C 2.710938 -11.167969 2.644531 -11.027344 2.675781 -10.875 C 2.667969 -10.828125 3.875 -5.25 3.46875 -2.210938 C 3.46875 -2.210938 3.269531 -1.355469 2.597656 -1.261719 C 1.851562 -1.152344 0.109375 -1.972656 -3.378906 -8.113281 C -3.351562 -8.132812 -3.351562 -8.132812 -3.375 -8.160156 C -3.242188 -10.105469 -3.609375 -13.230469 -4.332031 -16.257812 C -3.796875 -16.632812 -3.289062 -16.992188 -2.804688 -17.375 C -1.375 -18.503906 -0.0976562 -19.773438 0.671875 -21.128906 C 0.761719 -21.238281 0.679688 -21.398438 0.589844 -21.457031 C 0.476562 -21.542969 0.300781 -21.492188 0.214844 -21.378906 C -0.769531 -19.679688 -2.546875 -18.101562 -4.460938 -16.808594 C -5.273438 -20.113281 -6.472656 -23.242188 -7.832031 -24.40625 L -7.851562 -24.433594 C -8.363281 -24.859375 -8.863281 -24.992188 -9.390625 -24.882812 C -10.019531 -24.738281 -10.511719 -24.304688 -10.8125 -23.628906 C -11.539062 -21.828125 -10.84375 -18.34375 -9.019531 -14.089844 C -9.800781 -13.691406 -10.472656 -13.378906 -11.019531 -13.125 C -12.671875 -12.386719 -13.816406 -11.398438 -14.152344 -10.433594 C -14.300781 -10.007812 -14.300781 -9.566406 -14.101562 -9.203125 C -14.042969 -9.070312 -13.875 -9.027344 -13.746094 -9.085938 C -13.617188 -9.144531 -13.574219 -9.3125 -13.632812 -9.441406 C -13.773438 -9.675781 -13.789062 -9.972656 -13.679688 -10.277344 C -13.382812 -11.125 -12.351562 -11.984375 -10.800781 -12.683594 L -8.828125 -13.625 C -7.875 -11.53125 -6.675781 -9.234375 -5.234375 -6.910156 C -2.582031 -2.605469 -1.183594 -0.777344 0.167969 0.0429688 C 0.964844 0.554688 1.703125 0.496094 2.191406 0.332031 C 2.492188 0.269531 2.753906 0.105469 2.996094 -0.0898438 C 3.296875 -0.324219 3.523438 -0.589844 3.652344 -0.867188 C 3.789062 -1.195312 3.890625 -1.625 3.945312 -2.105469 L 3.972656 -2.128906 C 4.410156 -5.234375 3.222656 -10.738281 3.152344 -10.992188 C 3.121094 -11.140625 3.011719 -11.230469 2.859375 -11.199219 Z M -8.589844 -23.980469 C -8.402344 -24.128906 -8.234375 -24.085938 -8.144531 -24.027344 C -6.855469 -22.894531 -5.707031 -19.773438 -4.917969 -16.496094 C -5.605469 -16.039062 -6.269531 -15.601562 -6.949219 -15.242188 C -9.457031 -20.972656 -9.242188 -23.421875 -8.589844 -23.980469 Z M -4.390625 -9.945312 C -5.328125 -11.746094 -6.117188 -13.355469 -6.738281 -14.75 C -6.105469 -15.117188 -5.441406 -15.554688 -4.78125 -15.988281 C -4.199219 -13.425781 -3.847656 -10.8125 -3.84375 -8.972656 C -4.027344 -9.265625 -4.207031 -9.605469 -4.390625 -9.945312 Z M -4.390625 -9.945312 "/></g></g></g><g fill="#093064" fill-opacity="1"><g transform="translate(144.491418, 125.388711)"><g><path d="M 9.171875 -13.5 C 9.050781 -13.507812 8.933594 -13.363281 8.925781 -13.238281 C 8.941406 -11.976562 8.847656 -9.105469 8.359375 -7.472656 C 8.375 -7.441406 8.34375 -7.425781 8.34375 -7.425781 L 8.363281 -7.394531 C 8.21875 -6.957031 8.054688 -6.621094 7.847656 -6.425781 C 7.746094 -6.328125 7.640625 -6.304688 7.59375 -6.320312 C 7.210938 -6.296875 6.851562 -7.953125 6.542969 -9.246094 C 6.332031 -10.234375 6.089844 -11.40625 5.738281 -12.433594 C 5.070312 -14.351562 4.355469 -15.527344 3.527344 -15.925781 C 3.167969 -16.074219 2.792969 -16.097656 2.433594 -15.96875 C 2.070312 -15.839844 1.738281 -15.449219 1.480469 -14.863281 C 1.234375 -14.324219 1.046875 -13.621094 0.925781 -12.796875 C 0.394531 -9.515625 0.621094 -4.367188 1.496094 -0.78125 C 0.652344 -2.242188 -0.136719 -3.890625 -0.855469 -5.621094 C -0.796875 -5.652344 -0.722656 -5.734375 -0.726562 -5.8125 C -0.335938 -11.953125 -0.542969 -17.070312 -1.359375 -20.96875 C -1.953125 -24 -2.839844 -25.671875 -3.476562 -26.574219 L -3.511719 -26.632812 C -3.679688 -26.855469 -3.8125 -27.019531 -3.941406 -27.101562 C -4.386719 -27.601562 -4.863281 -27.878906 -5.25 -27.859375 C -6.265625 -27.828125 -6.644531 -27.25 -6.949219 -26.402344 C -7.453125 -25 -8.199219 -20.640625 -4.832031 -9.839844 C -2.691406 -3.015625 0.273438 1.785156 1.453125 3.488281 C 1.84375 4.097656 2.5 4.476562 3.148438 4.5 L 4.058594 4.566406 C 4.167969 4.546875 4.273438 4.523438 4.332031 4.492188 C 4.421875 4.4375 4.496094 4.359375 4.550781 4.246094 C 4.660156 4.023438 4.628906 3.765625 4.449219 3.589844 C 3.886719 2.960938 3.285156 2.117188 2.625 1.109375 C 1.277344 -2.125 0.765625 -8.734375 1.410156 -12.640625 C 1.394531 -12.671875 1.425781 -12.6875 1.40625 -12.71875 C 1.484375 -13 1.933594 -13.734375 2.304688 -13.710938 C 2.816406 -13.648438 3.339844 -12.324219 3.824219 -9.625 C 4.183594 -7.6875 4.464844 -6.582031 5.066406 -5.816406 C 5.632812 -5.109375 6.460938 -4.910156 7.027344 -4.960938 C 7.226562 -4.957031 7.421875 -5.03125 7.570312 -5.117188 C 8.527344 -5.664062 8.820312 -7.222656 8.84375 -7.316406 C 9.433594 -9.324219 9.449219 -12.746094 9.453125 -13.222656 C 9.441406 -13.375 9.328125 -13.507812 9.171875 -13.5 Z M -2.511719 -10.222656 C -3.167969 -12.464844 -4.136719 -16.550781 -4.722656 -19.984375 C -5.75 -25.902344 -5.132812 -26.691406 -4.953125 -26.796875 C -4.503906 -26.976562 -4.058594 -26.480469 -3.925781 -26.316406 C -2.738281 -24.738281 -0.414062 -19.804688 -1.195312 -6.417969 C -1.6875 -7.683594 -2.148438 -8.964844 -2.511719 -10.222656 Z M -2.511719 -10.222656 "/></g></g></g><g fill="#093064" fill-opacity="1"><g transform="translate(156.061727, 118.816946)"><g><path d="M 7.414062 -10.414062 C 7.292969 -10.441406 7.175781 -10.359375 7.117188 -10.226562 C 5.804688 -5.59375 4.726562 -3.519531 3.542969 -2.472656 L 3.511719 -2.460938 C 2.996094 -2.078125 2.433594 -2.007812 1.917969 -2.289062 C 0.902344 -2.816406 0.230469 -4.476562 0.152344 -6.582031 C 0.746094 -6.960938 3.089844 -8.527344 3.417969 -11.121094 C 3.496094 -11.964844 3.339844 -12.566406 3.101562 -12.992188 C 3.0625 -13.085938 2.984375 -13.203125 2.914062 -13.289062 C 2.773438 -13.457031 2.660156 -13.558594 2.546875 -13.664062 C 1.972656 -14.105469 1.195312 -14.210938 0.550781 -13.960938 C -0.925781 -13.394531 -2.472656 -11.101562 -2.488281 -6.449219 C -2.476562 -3.652344 -1.414062 -2.328125 -0.515625 -1.71875 C 0.585938 -0.964844 1.792969 -0.988281 2.46875 -1.246094 C 2.949219 -1.433594 3.394531 -1.714844 3.8125 -2.058594 C 3.8125 -2.058594 3.847656 -2.074219 3.832031 -2.105469 C 5.28125 -3.324219 6.34375 -5.726562 7.613281 -10.085938 C 7.628906 -10.238281 7.578125 -10.367188 7.414062 -10.414062 Z M 0.164062 -7.324219 C 0.261719 -11.085938 1.011719 -12.480469 1.632812 -12.976562 C 1.820312 -13.160156 2.023438 -13.203125 2.222656 -13.167969 L 2.515625 -12.984375 C 2.859375 -12.566406 3 -11.917969 2.914062 -11.1875 C 2.636719 -9.125 0.925781 -7.730469 0.136719 -7.203125 Z M 0.164062 -7.324219 "/></g></g></g><g fill="#093064" fill-opacity="1"><g transform="translate(164.761999, 115.322011)"><g/></g></g><g fill="#093064" fill-opacity="1"><g transform="translate(175.44998, 112.433407)"><g><path d="M 18.566406 -7.804688 C 18.570312 -7.769531 17.402344 -6.59375 16.398438 -6.800781 C 16.226562 -6.832031 16.085938 -6.859375 15.945312 -6.925781 C 15.28125 -7.28125 14.777344 -7.953125 14.371094 -8.835938 C 15.011719 -12.332031 15.332031 -16.195312 15.144531 -18.738281 C 15.007812 -20.796875 14.59375 -21.851562 13.835938 -21.929688 C 12.96875 -22.074219 12.316406 -21.054688 12.003906 -19.082031 C 11.628906 -16.796875 11.796875 -13.808594 12.390625 -11.421875 C 12.667969 -10.328125 13.085938 -9.136719 13.738281 -8.160156 C 13.382812 -6.394531 13.011719 -5.109375 12.664062 -4.238281 L 12.664062 -4.203125 C 12.535156 -3.957031 12.269531 -3.605469 12.097656 -3.632812 C 11.058594 -3.769531 9.707031 -8.304688 9.25 -14.859375 C 9.242188 -15.101562 9.0625 -15.300781 8.855469 -15.398438 C 8.644531 -15.496094 8.371094 -15.453125 8.203125 -15.308594 L 7.867188 -15.023438 C 7.332031 -14.558594 7.046875 -13.859375 7.140625 -13.105469 L 7.324219 -11.734375 C 7.226562 -10.457031 7.074219 -8.765625 6.824219 -7.039062 C 6.144531 -2.542969 5.332031 -1.105469 4.796875 -0.675781 C 4.761719 -0.671875 4.65625 -0.703125 4.550781 -0.804688 C 2.960938 -2.09375 1.242188 -12.394531 2.097656 -26.1875 C 2.089844 -26.464844 1.980469 -26.667969 1.769531 -26.796875 C 1.558594 -26.929688 1.316406 -26.953125 1.078125 -26.808594 L 0.300781 -26.371094 C -0.203125 -26.042969 -0.5625 -25.480469 -0.578125 -24.894531 C -0.8125 -17.421875 -0.402344 -3.910156 2.796875 -0.710938 C 3.296875 -0.210938 3.820312 0.0117188 4.40625 -0.0078125 C 4.644531 -0.015625 4.847656 -0.0898438 5.050781 -0.234375 C 5.050781 -0.234375 5.085938 -0.234375 5.085938 -0.269531 C 6.023438 -0.988281 6.742188 -3.214844 7.308594 -6.949219 C 7.445312 -7.953125 7.585938 -8.921875 7.660156 -9.820312 C 8.242188 -6.84375 9.183594 -3.296875 10.625 -2.378906 C 10.871094 -2.179688 11.148438 -2.121094 11.425781 -2.132812 C 11.527344 -2.132812 11.664062 -2.140625 11.765625 -2.175781 C 12.277344 -2.332031 12.703125 -3.035156 13.117188 -3.976562 L 13.117188 -4.011719 C 13.5625 -5.09375 13.898438 -6.445312 14.132812 -7.621094 C 14.707031 -6.953125 15.410156 -6.460938 16.277344 -6.28125 C 17.59375 -6.050781 18.890625 -7.367188 18.957031 -7.4375 C 19.058594 -7.542969 19.050781 -7.714844 18.945312 -7.78125 C 18.839844 -7.882812 18.667969 -7.875 18.566406 -7.804688 Z M 14.03125 -9.753906 C 13.378906 -11.796875 13.226562 -14.304688 13.152344 -15.539062 C 13 -18.082031 13.347656 -21.085938 13.855469 -21.378906 C 13.855469 -21.378906 13.886719 -21.414062 13.921875 -21.382812 C 14.132812 -21.214844 14.53125 -20.679688 14.664062 -18.6875 C 14.808594 -16.421875 14.578125 -13.007812 14.03125 -9.753906 Z M 14.03125 -9.753906 "/></g></g></g><g fill="#093064" fill-opacity="1"><g transform="translate(192.714121, 112.054328)"><g><path d="M 13.851562 -4.871094 C 13.800781 -4.984375 13.640625 -5.078125 13.523438 -4.992188 C 13.488281 -5 10.570312 -3.761719 8.1875 -4.738281 C 8.691406 -5.703125 8.996094 -6.734375 9.117188 -7.691406 C 9.292969 -9.4375 8.777344 -10.777344 7.628906 -11.414062 C 6.925781 -11.808594 6.171875 -11.894531 5.363281 -11.640625 C 3.816406 -11.125 2.28125 -9.386719 1.109375 -6.859375 C 0.0898438 -4.652344 0.601562 -2.863281 1.394531 -1.933594 C 1.863281 -1.40625 2.441406 -1.105469 3.089844 -1 C 3.53125 -0.929688 3.953125 -0.964844 4.394531 -1.101562 C 5.855469 -1.527344 7.105469 -2.789062 7.933594 -4.257812 C 8.332031 -4.125 8.726562 -3.992188 9.167969 -3.917969 C 9.609375 -3.847656 10.128906 -3.832031 10.65625 -3.851562 C 12.308594 -3.933594 13.65625 -4.519531 13.730469 -4.542969 C 13.84375 -4.59375 13.902344 -4.757812 13.851562 -4.871094 Z M 5.050781 -1.9375 C 4.441406 -1.617188 3.859375 -1.675781 3.40625 -2.097656 C 2.738281 -2.726562 2.359375 -4.253906 3.394531 -6.558594 C 3.828125 -7.535156 4.378906 -8.351562 5 -8.949219 C 4.929688 -8.296875 5.023438 -7.375 5.714844 -6.253906 C 6.152344 -5.523438 6.6875 -4.949219 7.390625 -4.554688 C 7.417969 -4.515625 7.453125 -4.511719 7.488281 -4.503906 C 6.859375 -3.421875 6.007812 -2.480469 5.050781 -1.9375 Z M 7.734375 -4.953125 C 7.699219 -4.957031 7.664062 -4.964844 7.636719 -5.003906 C 7.160156 -5.289062 6.824219 -5.796875 6.683594 -6.445312 C 6.367188 -7.925781 7.007812 -9.738281 7.304688 -10.28125 C 7.414062 -10.300781 7.480469 -10.289062 7.546875 -10.277344 C 8.035156 -10.269531 8.371094 -9.972656 8.496094 -9.464844 C 8.675781 -8.84375 8.671875 -8.179688 8.601562 -7.738281 C 8.527344 -6.84375 8.191406 -5.855469 7.734375 -4.953125 Z M 7.734375 -4.953125 "/></g></g></g><g fill="#093064" fill-opacity="1"><g transform="translate(203.819542, 113.841899)"><g><path d="M 12.597656 -3.515625 C 12.488281 -3.621094 12.335938 -3.597656 12.230469 -3.488281 C 10.0625 -1.175781 7.851562 0.367188 6.230469 1.050781 C 5.960938 1.109375 5.65625 1.160156 5.480469 1.03125 C 5.445312 1.019531 5.390625 0.96875 5.367188 0.816406 C 5.242188 -0.160156 6.703125 -2.765625 8.128906 -4.554688 C 8.3125 -4.785156 8.335938 -5.101562 8.191406 -5.328125 C 8.058594 -5.585938 7.78125 -5.746094 7.519531 -5.71875 C 6.554688 -5.625 5.207031 -5.578125 4.332031 -5.886719 C 3.9375 -6.011719 3.738281 -6.183594 3.691406 -6.378906 C 3.5625 -6.886719 4.371094 -7.859375 4.980469 -8.53125 C 5.414062 -9.007812 5.488281 -9.707031 5.121094 -10.253906 L 4.90625 -10.609375 C 4.773438 -10.867188 4.496094 -11.027344 4.214844 -11.042969 C 3.929688 -11.058594 3.652344 -10.96875 3.46875 -10.734375 C 1.878906 -9 1.246094 -7.898438 1.914062 -6.574219 C 2.46875 -5.460938 4.464844 -5.054688 5.359375 -4.917969 C 3.839844 -3.050781 2.601562 -0.589844 3.007812 0.871094 C 3.179688 1.355469 3.5 1.710938 3.992188 1.863281 L 4.027344 1.875 C 4.648438 2.070312 5.527344 1.910156 6.53125 1.46875 C 6.652344 1.433594 6.703125 1.378906 6.746094 1.355469 C 8.507812 0.574219 10.632812 -1.03125 12.59375 -3.15625 C 12.699219 -3.265625 12.710938 -3.410156 12.597656 -3.515625 Z M 12.597656 -3.515625 "/></g></g></g><g fill="#093064" fill-opacity="1"><g transform="translate(213.184817, 116.768009)"><g><path d="M 11.6875 -2.492188 C 11.589844 -2.613281 11.4375 -2.605469 11.316406 -2.511719 C 11.269531 -2.492188 6.859375 1.125 3.910156 2.199219 L 3.878906 2.1875 C 3.878906 2.1875 2.980469 2.417969 2.589844 1.863281 C 2.136719 1.203125 2.066406 -0.796875 6.066406 -6.910156 C 6.097656 -6.894531 6.097656 -6.894531 6.109375 -6.925781 C 10.144531 -8.640625 18.097656 -15.21875 18.960938 -18.679688 L 18.945312 -18.726562 C 19.121094 -19.363281 18.996094 -19.914062 18.65625 -20.332031 C 18.238281 -20.824219 17.660156 -21.050781 16.96875 -21.027344 C 14.082031 -20.832031 8.96875 -15.757812 4.007812 -8.113281 C 1.640625 -4.507812 0.398438 -1.785156 0.238281 0.222656 C 0.167969 1.210938 0.558594 1.84375 0.925781 2.199219 C 1.164062 2.421875 1.449219 2.625 1.730469 2.753906 C 2.042969 2.898438 2.414062 2.992188 2.722656 2.980469 C 3.121094 2.9375 3.546875 2.828125 4.035156 2.671875 C 7.089844 1.609375 11.441406 -1.960938 11.636719 -2.136719 C 11.757812 -2.234375 11.75 -2.386719 11.6875 -2.492188 Z M 7.292969 -8.695312 C 13.675781 -17.953125 17.171875 -19.648438 18.203125 -19.179688 C 18.4375 -19.109375 18.476562 -18.941406 18.449219 -18.800781 C 17.679688 -15.710938 10.613281 -9.75 6.621094 -7.714844 Z M 7.292969 -8.695312 "/></g></g></g><g fill="#093064" fill-opacity="1"><g transform="translate(220.818293, 119.929895)"><g><path d="M 16.789062 2.5 C 16.742188 2.386719 16.558594 2.347656 16.445312 2.398438 C 14.90625 3.238281 11.179688 4.90625 9.015625 5.007812 C 8.996094 5.039062 8.964844 5.019531 8.964844 5.019531 C 8.765625 5.011719 8.507812 4.964844 8.402344 4.6875 C 8.285156 4.367188 8.023438 2.632812 13.296875 -2.589844 C 19.03125 -3.804688 27.546875 -8.253906 28.878906 -11.414062 C 29.152344 -12.015625 29.109375 -12.578125 28.835938 -13.042969 C 28.382812 -13.671875 27.761719 -14.039062 26.894531 -14.15625 C 23.894531 -14.476562 18.691406 -11.433594 13.261719 -6.230469 L 12.949219 -5.945312 C 12.964844 -6.34375 12.933594 -6.734375 12.757812 -7.097656 C 12.476562 -7.734375 11.894531 -8.160156 11.0625 -8.332031 C 9.101562 -8.796875 5.113281 -7.917969 2.78125 -4.550781 C 1.808594 -3.132812 1.941406 -2.140625 2.238281 -1.535156 C 2.441406 -1.152344 2.761719 -0.820312 3.132812 -0.578125 C 3.625 -0.253906 4.234375 -0.0585938 4.761719 -0.0429688 C 6.085938 0.00390625 7.265625 -0.417969 8.433594 -1.007812 C 7.027344 0.824219 6.398438 2.222656 6.425781 3.308594 C 6.449219 4.027344 6.75 4.632812 7.34375 5.105469 C 7.355469 5.15625 7.414062 5.191406 7.46875 5.230469 C 7.785156 5.4375 8.285156 5.558594 8.875 5.535156 C 8.921875 5.523438 8.949219 5.542969 8.96875 5.515625 C 9 5.535156 9 5.535156 9.015625 5.503906 C 9.980469 5.476562 11.257812 5.164062 12.796875 4.570312 C 14.851562 3.820312 16.667969 2.871094 16.6875 2.84375 C 16.800781 2.796875 16.867188 2.632812 16.789062 2.5 Z M 16.394531 -5.492188 C 23.398438 -11.714844 26.226562 -12.453125 27.316406 -12.355469 C 27.667969 -12.328125 27.890625 -12.226562 28.035156 -12.007812 C 28.363281 -11.628906 28.003906 -10.957031 27.957031 -10.824219 C 25.914062 -8.214844 19.3125 -4.605469 14 -3.28125 Z M 9.238281 -2.042969 C 7.777344 -1.191406 6.378906 -0.503906 4.804688 -0.550781 C 4.546875 -0.597656 4.222656 -0.726562 4.140625 -1.109375 C 3.953125 -1.890625 4.621094 -3.21875 6.558594 -4.542969 C 9.578125 -6.632812 11.925781 -6.203125 12.128906 -6.070312 C 12.386719 -5.902344 12.378906 -5.699219 12.378906 -5.578125 C 12.351562 -5.472656 12.324219 -5.367188 12.285156 -5.308594 C 11.074219 -4.089844 10.082031 -3.011719 9.238281 -2.042969 Z M 9.238281 -2.042969 "/></g></g></g><g fill="#093064" fill-opacity="1"><g transform="translate(232.452175, 127.597621)"><g/></g></g><g fill="#093064" fill-opacity="1"><g transform="translate(240.719892, 135.390278)"><g><path d="M 10.96875 -5.75 C 11.625 -6.28125 12.210938 -6.492188 12.734375 -6.390625 C 13.265625 -6.285156 13.710938 -6.015625 14.078125 -5.578125 C 14.441406 -5.128906 14.625 -4.628906 14.625 -4.078125 C 14.632812 -3.523438 14.3125 -2.984375 13.65625 -2.453125 C 13.019531 -1.929688 12.421875 -1.71875 11.859375 -1.8125 C 11.304688 -1.914062 10.847656 -2.191406 10.484375 -2.640625 C 10.117188 -3.078125 9.945312 -3.570312 9.96875 -4.125 C 10 -4.6875 10.332031 -5.226562 10.96875 -5.75 Z M 10.96875 -5.75 "/></g></g></g><g fill="#093064" fill-opacity="1"><g transform="translate(246.11478, 141.946112)"><g><path d="M 11.5625 -4.453125 C 12.28125 -4.898438 12.894531 -5.039062 13.40625 -4.875 C 13.914062 -4.707031 14.320312 -4.382812 14.625 -3.90625 C 14.9375 -3.425781 15.066406 -2.910156 15.015625 -2.359375 C 14.960938 -1.804688 14.578125 -1.304688 13.859375 -0.859375 C 13.171875 -0.410156 12.550781 -0.269531 12 -0.4375 C 11.457031 -0.601562 11.03125 -0.925781 10.71875 -1.40625 C 10.414062 -1.882812 10.304688 -2.398438 10.390625 -2.953125 C 10.484375 -3.503906 10.875 -4.003906 11.5625 -4.453125 Z M 11.5625 -4.453125 "/></g></g></g><g fill="#093064" fill-opacity="1"><g transform="translate(250.712955, 149.083371)"><g><path d="M 12 -3.078125 C 12.757812 -3.441406 13.382812 -3.507812 13.875 -3.28125 C 14.375 -3.0625 14.75 -2.691406 15 -2.171875 C 15.25 -1.660156 15.3125 -1.132812 15.1875 -0.59375 C 15.0625 -0.0507812 14.617188 0.398438 13.859375 0.765625 C 13.117188 1.128906 12.488281 1.195312 11.96875 0.96875 C 11.445312 0.738281 11.0625 0.367188 10.8125 -0.140625 C 10.5625 -0.660156 10.507812 -1.1875 10.65625 -1.71875 C 10.8125 -2.257812 11.257812 -2.710938 12 -3.078125 Z M 12 -3.078125 "/></g></g></g><g clip-path="url(#f287f3c92a)"><path fill="#7bcfff" d="M 196.027344 132.507812 C 193.214844 132.230469 190.332031 132.183594 187.410156 132.394531 C 172.695312 133.472656 159.183594 139.105469 149.113281 148.085938 C 155.585938 147.875 165.695312 146.855469 175.769531 143.09375 C 186.894531 138.941406 192.582031 135.378906 196.027344 132.507812 Z M 195.648438 198.246094 C 224.914062 186.21875 233.53125 177.855469 240.507812 168.945312 C 239.347656 165.519531 237.863281 162.238281 236.09375 159.148438 C 230.769531 166.710938 219.742188 177.398438 192.535156 188.34375 C 179.753906 193.492188 167.792969 195.171875 157.632812 195.171875 C 146.164062 195.171875 137 193.035156 131.523438 191.335938 C 131.785156 195.050781 132.40625 198.667969 133.355469 202.144531 C 136.582031 203.15625 140.605469 204.160156 145.324219 204.871094 C 156.75 206.589844 174.75 206.832031 195.648438 198.246094 Z M 199.636719 211.347656 C 227.054688 200.6875 237.964844 191.410156 243.378906 184.390625 C 243.171875 179.460938 242.320312 174.679688 240.898438 170.140625 C 233.90625 178.960938 224.972656 187.324219 196.042969 199.214844 C 181.695312 205.109375 168.699219 206.875 158.292969 206.875 C 153.664062 206.875 149.546875 206.523438 146.050781 206.035156 C 141.242188 205.363281 137.082031 204.371094 133.695312 203.34375 C 135.320312 208.816406 137.757812 213.933594 140.867188 218.558594 C 152.089844 220.125 174.332031 221.183594 199.636719 211.347656 Z M 174.816406 241.828125 C 178.710938 242.699219 182.769531 243.160156 186.933594 243.160156 C 202.53125 243.160156 216.867188 236.539062 227.199219 225.980469 C 221.011719 229.367188 211.980469 233.472656 199.652344 237.113281 C 189.960938 239.972656 181.433594 241.277344 174.816406 241.828125 Z M 243.425781 186.015625 C 237.671875 193.027344 226.410156 202.0625 200.015625 212.324219 C 183.242188 218.839844 167.796875 220.617188 155.949219 220.617188 C 150.28125 220.617188 145.4375 220.210938 141.667969 219.722656 C 145.207031 224.707031 149.546875 229.082031 154.492188 232.660156 C 162.796875 233.148438 179.769531 232.804688 200.4375 225.089844 C 222.570312 216.824219 235.570312 206.988281 241.292969 201.921875 C 242.683594 197.082031 243.433594 191.984375 243.433594 186.742188 C 243.433594 186.5 243.429688 186.257812 243.425781 186.015625 Z M 159.578125 233.851562 C 158.320312 233.851562 157.160156 233.828125 156.105469 233.785156 C 160.804688 236.941406 166.007812 239.394531 171.570312 241 C 178.460938 240.632812 188.109375 239.429688 199.359375 236.105469 C 213.667969 231.878906 223.492188 227.039062 229.539062 223.449219 C 234.488281 217.753906 238.332031 211.089844 240.710938 203.804688 C 234.363281 209.171875 221.558594 218.320312 200.800781 226.074219 C 183.597656 232.496094 168.910156 233.851562 159.578125 233.851562 Z M 192.148438 187.371094 C 219.574219 176.332031 230.375 165.617188 235.511719 158.152344 C 233.261719 154.398438 230.582031 150.9375 227.546875 147.847656 C 221.929688 155.515625 211.878906 165.664062 187.902344 174.128906 C 176.886719 178.015625 166.195312 179.292969 156.902344 179.292969 C 146.535156 179.292969 137.910156 177.703125 132.515625 176.375 C 131.773438 179.894531 131.382812 183.566406 131.382812 187.378906 C 131.382812 188.332031 131.40625 189.28125 131.457031 190.222656 C 141.417969 193.367188 164.871094 198.355469 192.148438 187.371094 Z M 187.554688 173.140625 C 211.375 164.734375 221.273438 154.667969 226.796875 147.09375 C 224.007812 144.367188 220.9375 141.949219 217.632812 139.894531 C 212.925781 145.335938 203.167969 153.101562 182.988281 161.175781 C 172.835938 165.234375 162.78125 167.265625 153.308594 167.265625 C 147.40625 167.265625 141.730469 166.472656 136.398438 164.890625 C 134.824219 168.183594 133.59375 171.683594 132.742188 175.355469 C 142.835938 177.84375 164.472656 181.289062 187.554688 173.140625 Z M 179.261719 150.449219 C 194.570312 144.445312 202.691406 138.546875 206.746094 134.785156 C 203.753906 133.792969 200.644531 133.078125 197.453125 132.667969 C 194.019531 135.703125 188.238281 139.558594 176.132812 144.078125 C 165.285156 148.125 154.398438 149.035156 147.933594 149.164062 C 145.878906 151.105469 143.984375 153.191406 142.265625 155.410156 C 149.398438 156.613281 162.332031 157.089844 179.261719 150.449219 Z M 182.597656 160.203125 C 202.398438 152.28125 212.015625 144.617188 216.664062 139.308594 C 213.886719 137.667969 210.953125 136.277344 207.890625 135.179688 C 203.902344 139.011719 195.667969 145.136719 179.640625 151.425781 C 168.261719 155.886719 158.632812 157.175781 151.320312 157.175781 C 147.355469 157.175781 144.074219 156.800781 141.550781 156.34375 C 139.78125 158.730469 138.210938 161.265625 136.867188 163.9375 C 150.492188 167.925781 166.410156 166.675781 182.597656 160.203125 " fill-opacity="1" fill-rule="nonzero"/></g><path stroke-linecap="butt" transform="matrix(0.754366, 0, 0, 0.75, 84.204198, 260.806096)" fill="none" stroke-linejoin="miter" d="M -0.00142261 0.998121 L 53.696435 0.998121 " stroke="#093064" stroke-width="2" stroke-opacity="1" stroke-miterlimit="4"/><path stroke-linecap="butt" transform="matrix(0.754366, 0, 0, 0.75, 250.521581, 260.806096)" fill="none" stroke-linejoin="miter" d="M 0.00246121 0.998121 L 53.700319 0.998121 " stroke="#093064" stroke-width="2" stroke-opacity="1" stroke-miterlimit="4"/><g clip-path="url(#e61e808a04)"><g clip-path="url(#e41fbbdd80)"><g clip-path="url(#6677a6c6c7)"><g clip-path="url(#c98e154e65)"><path fill="#093064" d="M 250.808594 171.753906 C 250.808594 171.753906 250.757812 171.5625 250.761719 171.363281 C 250.761719 171.167969 250.808594 170.738281 250.808594 170.835938 C 250.8125 170.933594 250.992188 171.054688 250.992188 171.054688 L 251.011719 170.882812 L 251.148438 170.875 L 251.160156 171.148438 L 255.378906 172.945312 C 255.378906 172.945312 255.386719 173.179688 255.40625 173.183594 C 255.410156 172.949219 255.390625 172.796875 255.421875 172.773438 C 255.460938 172.789062 260.085938 174.71875 260.1875 174.773438 C 260.234375 174.796875 260.214844 174.996094 260.214844 174.996094 L 261.398438 175.152344 L 261.402344 174.996094 C 261.402344 174.996094 263.894531 175.296875 263.964844 175.25 C 264.03125 175.207031 263.851562 172.5625 263.9375 170.765625 C 264.019531 168.96875 264.207031 168 264.289062 167.652344 C 264.363281 167.328125 264.296875 167.257812 264.136719 167.125 C 263.976562 166.992188 260.761719 164.730469 260.492188 164.535156 C 260.226562 164.34375 260.222656 164.253906 260.21875 164.136719 C 260.21875 163.980469 260.191406 162.953125 260.191406 162.953125 L 264.625 163.933594 C 264.625 163.933594 264.640625 163.5 264.703125 163.433594 C 264.765625 163.371094 264.898438 163.390625 264.898438 163.390625 C 264.898438 163.390625 264.972656 162.488281 265.019531 162.429688 C 265.066406 162.371094 265.152344 162.339844 265.152344 162.339844 C 265.152344 162.339844 265.332031 161.40625 265.421875 161.378906 C 265.421875 161.378906 265.421875 161.378906 265.425781 161.378906 C 265.515625 161.402344 265.730469 162.328125 265.730469 162.328125 C 265.730469 162.328125 265.8125 162.355469 265.863281 162.414062 C 265.914062 162.472656 266.019531 163.371094 266.019531 163.371094 C 266.019531 163.371094 266.152344 163.34375 266.21875 163.40625 C 266.28125 163.46875 266.316406 163.902344 266.316406 163.902344 L 270.707031 162.757812 C 270.707031 162.757812 270.71875 163.785156 270.722656 163.941406 C 270.726562 164.0625 270.722656 164.152344 270.464844 164.351562 C 270.203125 164.554688 267.074219 166.933594 266.921875 167.074219 C 266.765625 167.214844 266.699219 167.285156 266.789062 167.609375 C 266.882812 167.953125 267.101562 168.914062 267.253906 170.703125 C 267.40625 172.496094 267.320312 175.144531 267.390625 175.1875 C 267.460938 175.230469 269.941406 174.835938 269.941406 174.835938 L 269.949219 174.992188 L 271.128906 174.796875 C 271.128906 174.796875 271.101562 174.597656 271.144531 174.570312 C 271.246094 174.515625 275.796875 172.414062 275.835938 172.398438 C 275.867188 172.417969 275.855469 172.574219 275.863281 172.808594 C 275.882812 172.800781 275.886719 172.570312 275.886719 172.570312 L 280.035156 170.617188 L 280.035156 170.34375 L 280.171875 170.34375 L 280.199219 170.515625 C 280.199219 170.515625 280.375 170.390625 280.375 170.292969 C 280.371094 170.195312 280.433594 170.621094 280.441406 170.816406 C 280.449219 171.015625 280.410156 171.207031 280.410156 171.207031 C 280.410156 171.207031 280.550781 171.160156 280.539062 171.347656 C 280.535156 171.464844 280.171875 172.011719 280.171875 172.011719 C 280.171875 172.011719 280.148438 172.09375 280.152344 172.148438 C 280.160156 172.214844 280.078125 172.261719 280.035156 172.300781 C 280.011719 172.320312 280.042969 172.441406 280.042969 172.441406 C 280.042969 172.441406 278.675781 173.644531 276.308594 175.53125 C 273.945312 177.414062 271.148438 179.71875 271.148438 179.71875 C 271.148438 179.71875 271.148438 179.851562 271.179688 180.03125 C 271.210938 180.210938 271.230469 180.289062 271.230469 180.289062 C 271.230469 180.289062 271.375 180.332031 271.417969 180.449219 C 271.449219 180.535156 271.535156 181.167969 271.535156 181.742188 C 271.53125 182.3125 271.503906 182.613281 271.464844 182.703125 C 271.429688 182.796875 271.296875 182.839844 271.128906 182.867188 C 270.949219 182.894531 270.261719 182.890625 270.09375 182.871094 C 269.9375 182.851562 269.839844 182.832031 269.808594 182.609375 C 269.777344 182.390625 269.757812 181.628906 269.769531 181.316406 C 269.78125 181.097656 269.835938 180.84375 269.800781 180.832031 C 269.769531 180.816406 269.207031 181.378906 268.894531 181.605469 C 268.585938 181.835938 268.054688 182.304688 267.992188 182.449219 C 267.925781 182.59375 267.921875 182.613281 267.878906 182.484375 C 267.835938 182.355469 267.84375 182.226562 267.894531 182.132812 C 267.945312 182.039062 267.96875 181.921875 267.914062 181.871094 C 267.894531 181.851562 267.738281 181.984375 267.699219 182.066406 C 267.664062 182.144531 267.707031 182.292969 267.679688 182.359375 C 267.65625 182.421875 267.554688 182.613281 267.5625 182.769531 C 267.605469 183.699219 267.664062 185.089844 267.726562 188.128906 C 267.796875 191.382812 267.78125 192.355469 267.398438 194.101562 C 267.050781 195.6875 266.769531 196.003906 266.628906 196.234375 C 266.5 196.449219 266.199219 196.617188 266.074219 196.621094 L 266.070312 196.621094 C 265.941406 196.621094 265.636719 196.464844 265.5 196.253906 C 265.351562 196.03125 265.0625 195.722656 264.652344 194.152344 C 264.207031 192.421875 264.15625 191.449219 264.105469 188.195312 C 264.054688 185.15625 264.0625 183.761719 264.070312 182.832031 C 264.074219 182.679688 263.964844 182.492188 263.9375 182.425781 C 263.910156 182.363281 263.949219 182.210938 263.90625 182.136719 C 263.867188 182.058594 263.707031 181.929688 263.6875 181.949219 C 263.636719 182.003906 263.664062 182.121094 263.71875 182.210938 C 263.773438 182.300781 263.78125 182.429688 263.742188 182.558594 C 263.707031 182.691406 263.699219 182.671875 263.632812 182.53125 C 263.5625 182.386719 263.015625 181.9375 262.695312 181.722656 C 262.378906 181.507812 261.796875 180.964844 261.761719 180.976562 C 261.730469 180.992188 261.792969 181.242188 261.8125 181.464844 C 261.835938 181.777344 261.84375 182.535156 261.820312 182.757812 C 261.800781 182.980469 261.699219 183.003906 261.542969 183.03125 C 261.378906 183.054688 260.691406 183.085938 260.511719 183.0625 C 260.34375 183.039062 260.210938 183.003906 260.167969 182.914062 C 260.128906 182.820312 260.089844 182.523438 260.066406 181.953125 C 260.042969 181.378906 260.105469 180.746094 260.132812 180.65625 C 260.171875 180.539062 260.3125 180.492188 260.3125 180.492188 C 260.3125 180.492188 260.332031 180.414062 260.355469 180.230469 C 260.378906 180.046875 260.375 179.917969 260.375 179.917969 C 260.375 179.917969 257.496094 177.714844 255.0625 175.921875 C 252.628906 174.125 251.21875 172.972656 251.21875 172.972656 C 251.21875 172.972656 251.246094 172.851562 251.21875 172.832031 C 251.175781 172.792969 251.09375 172.753906 251.097656 172.6875 C 251.101562 172.628906 251.074219 172.546875 251.074219 172.546875 C 251.074219 172.546875 250.691406 172.015625 250.679688 171.898438 C 250.664062 171.710938 250.808594 171.753906 250.808594 171.753906 Z M 279.574219 172.589844 L 279.847656 172.375 L 279.824219 172.34375 L 279.546875 172.5625 Z M 279.023438 173.023438 L 279.542969 172.617188 L 279.515625 172.585938 L 279 172.992188 Z M 278.472656 173.457031 L 278.992188 173.046875 L 278.96875 173.015625 L 278.453125 173.425781 Z M 277.78125 174.003906 L 278.441406 173.480469 L 278.421875 173.449219 L 277.757812 173.972656 Z M 277.140625 174.507812 L 277.75 174.027344 L 277.726562 173.996094 L 277.117188 174.476562 Z M 276.496094 175.015625 L 277.109375 174.53125 L 277.085938 174.5 L 276.472656 174.984375 Z M 275.824219 175.542969 L 276.464844 175.039062 L 276.441406 175.007812 L 275.796875 175.511719 Z M 275.152344 176.074219 L 275.792969 175.566406 L 275.765625 175.539062 L 275.128906 176.042969 Z M 274.480469 176.597656 L 275.121094 176.097656 L 275.097656 176.066406 L 274.460938 176.566406 Z M 273.816406 177.121094 L 274.449219 176.625 L 274.429688 176.589844 L 273.792969 177.089844 Z M 273.179688 177.625 L 273.785156 177.148438 L 273.765625 177.117188 L 273.15625 177.59375 Z M 272.542969 178.128906 L 273.148438 177.648438 L 273.125 177.617188 L 272.519531 178.09375 Z M 271.789062 178.71875 L 272.511719 178.152344 L 272.488281 178.117188 L 271.773438 178.683594 Z M 271.59375 178.875 L 271.757812 178.742188 L 271.742188 178.707031 L 271.578125 178.835938 Z M 270.976562 179.359375 L 271.5625 178.898438 L 271.546875 178.863281 L 270.953125 179.328125 Z M 260.53125 179.550781 L 260.554688 179.519531 L 259.949219 179.074219 L 259.933594 179.113281 Z M 259.898438 179.089844 L 259.914062 179.050781 L 259.746094 178.929688 L 259.730469 178.964844 Z M 259.699219 178.941406 L 259.714844 178.90625 L 258.976562 178.367188 L 258.957031 178.402344 Z M 258.925781 178.378906 L 258.945312 178.34375 L 258.324219 177.890625 L 258.300781 177.921875 Z M 258.269531 177.898438 L 258.292969 177.867188 L 257.667969 177.410156 L 257.644531 177.445312 Z M 257.613281 177.421875 L 257.632812 177.390625 L 256.980469 176.914062 L 256.960938 176.945312 Z M 256.929688 176.921875 L 256.949219 176.890625 L 256.296875 176.410156 L 256.273438 176.445312 Z M 256.242188 176.421875 L 256.261719 176.390625 L 255.605469 175.910156 L 255.578125 175.9375 Z M 255.546875 175.914062 L 255.574219 175.886719 L 254.914062 175.40625 L 254.890625 175.4375 Z M 254.859375 175.414062 L 254.882812 175.382812 L 254.25 174.921875 L 254.226562 174.953125 Z M 254.195312 174.929688 L 254.21875 174.898438 L 253.59375 174.441406 L 253.570312 174.472656 Z M 253.539062 174.449219 L 253.558594 174.417969 L 252.875 173.917969 L 252.855469 173.953125 Z M 252.824219 173.929688 L 252.84375 173.894531 L 252.3125 173.507812 L 252.289062 173.539062 Z M 252.257812 173.515625 L 252.28125 173.484375 L 251.75 173.097656 L 251.726562 173.128906 Z M 251.695312 173.105469 L 251.71875 173.074219 L 251.433594 172.867188 L 251.410156 172.898438 Z M 251.695312 173.105469 " fill-opacity="1" fill-rule="evenodd"/></g></g></g></g><g fill="#093064" fill-opacity="1"><g transform="translate(139.115138, 266.056096)"><g><path d="M 3.546875 -0.527344 C 3.546875 -0.160156 3.863281 0.175781 4.25 0.175781 C 4.640625 0.175781 4.957031 -0.160156 4.957031 -0.527344 L 4.957031 -11.058594 L 7.355469 -11.058594 C 7.742188 -11.058594 8.078125 -11.378906 8.078125 -11.75 C 8.078125 -12.136719 7.726562 -12.4375 7.355469 -12.4375 L 1.148438 -12.4375 C 0.757812 -12.4375 0.441406 -12.046875 0.441406 -11.75 C 0.441406 -11.378906 0.742188 -11.058594 1.148438 -11.058594 L 3.546875 -11.058594 Z M 3.546875 -0.527344 "/></g></g></g><g fill="#093064" fill-opacity="1"><g transform="translate(147.633696, 266.056096)"><g><path d="M 2.734375 -6.507812 C 2.734375 -6.648438 2.714844 -6.808594 2.699219 -6.984375 C 3.582031 -7.636719 4.214844 -7.636719 4.9375 -7.621094 C 5.308594 -7.601562 5.628906 -7.886719 5.628906 -8.324219 C 5.628906 -8.695312 5.414062 -8.996094 4.710938 -8.996094 C 4.039062 -8.996094 3.050781 -8.714844 2.292969 -8.238281 C 2.117188 -8.519531 1.871094 -8.714844 1.585938 -8.714844 C 1.253906 -8.714844 0.953125 -8.46875 0.953125 -8.097656 C 0.953125 -7.9375 1.003906 -7.851562 1.074219 -7.742188 C 1.289062 -7.425781 1.359375 -7.089844 1.359375 -6.507812 L 1.359375 -0.546875 C 1.359375 -0.160156 1.65625 0.140625 2.046875 0.140625 C 2.433594 0.140625 2.734375 -0.160156 2.734375 -0.546875 Z M 2.734375 -6.507812 "/></g></g></g><g fill="#093064" fill-opacity="1"><g transform="translate(153.577288, 266.056096)"><g><path d="M 5.679688 -4.957031 C 5.132812 -5.117188 4.535156 -5.203125 3.898438 -5.203125 C 1.816406 -5.203125 0.792969 -4.320312 0.792969 -2.59375 L 0.792969 -2.523438 C 0.792969 -0.933594 1.675781 0.140625 3.492188 0.140625 C 4.445312 0.140625 5.238281 -0.175781 5.910156 -0.792969 C 6.175781 -0.246094 6.648438 0.0898438 7.230469 0.0898438 C 7.621094 0.0898438 8.027344 -0.0703125 8.027344 -0.511719 C 8.027344 -0.8125 7.851562 -1.109375 7.515625 -1.109375 C 7.445312 -1.109375 7.425781 -1.09375 7.375 -1.09375 C 7.160156 -1.09375 7.054688 -1.269531 7.054688 -1.621094 L 7.054688 -5.503906 C 7.054688 -7.832031 6.175781 -9.066406 3.96875 -9.066406 C 2.75 -9.066406 1.429688 -8.730469 1.5 -7.921875 C 1.515625 -7.65625 1.65625 -7.339844 1.992188 -7.339844 C 2.1875 -7.339844 2.398438 -7.460938 2.453125 -7.480469 C 2.839844 -7.691406 3.175781 -7.851562 3.792969 -7.851562 C 5.0625 -7.851562 5.679688 -7.25 5.679688 -5.960938 Z M 3.878906 -4.039062 C 4.410156 -4.039062 5.097656 -3.953125 5.679688 -3.773438 L 5.679688 -1.871094 C 5.0625 -1.339844 4.464844 -1.09375 3.703125 -1.09375 C 2.523438 -1.09375 2.152344 -1.675781 2.152344 -2.503906 L 2.152344 -2.574219 C 2.152344 -3.371094 2.433594 -4.039062 3.878906 -4.039062 Z M 3.878906 -4.039062 "/></g></g></g><g fill="#093064" fill-opacity="1"><g transform="translate(162.07821, 266.056096)"><g><path d="M 7.125 -8.148438 C 7.25 -8.609375 6.898438 -9.015625 6.472656 -9.015625 C 6.210938 -9.015625 5.945312 -8.820312 5.855469 -8.554688 L 3.828125 -1.90625 L 1.765625 -8.554688 C 1.65625 -8.855469 1.410156 -9.015625 1.148438 -9.015625 C 0.742188 -9.015625 0.335938 -8.625 0.476562 -8.203125 L 2.929688 -0.671875 C 3.121094 -0.105469 3.351562 0.140625 3.828125 0.140625 C 4.285156 0.140625 4.535156 -0.105469 4.726562 -0.6875 Z M 7.125 -8.148438 "/></g></g></g><g fill="#093064" fill-opacity="1"><g transform="translate(169.662026, 266.056096)"><g><path d="M 4.09375 -1.074219 C 2.824219 -1.074219 2.167969 -1.710938 2.167969 -2.699219 L 2.167969 -3.738281 C 2.789062 -3.632812 3.441406 -3.582031 3.96875 -3.582031 C 6.066406 -3.582031 6.949219 -4.570312 6.949219 -6.191406 C 6.949219 -7.9375 5.980469 -9.066406 4.023438 -9.066406 C 1.921875 -9.066406 0.792969 -7.777344 0.792969 -6.085938 L 0.792969 -2.789062 C 0.792969 -1.128906 1.941406 0.140625 3.933594 0.140625 C 4.886719 0.140625 6.792969 -0.140625 6.792969 -1.003906 C 6.792969 -1.324219 6.527344 -1.621094 6.175781 -1.621094 C 6.050781 -1.621094 5.960938 -1.585938 5.925781 -1.570312 C 5.308594 -1.289062 4.832031 -1.074219 4.09375 -1.074219 Z M 5.59375 -6.191406 C 5.59375 -5.46875 5.363281 -4.746094 4.023438 -4.746094 C 3.667969 -4.746094 2.824219 -4.78125 2.167969 -4.867188 L 2.167969 -6.210938 C 2.167969 -7.195312 2.839844 -7.816406 3.988281 -7.816406 C 5.007812 -7.816406 5.59375 -7.339844 5.59375 -6.191406 Z M 5.59375 -6.191406 "/></g></g></g><g fill="#093064" fill-opacity="1"><g transform="translate(177.334019, 266.056096)"><g><path d="M 1.304688 -1.65625 C 1.304688 -0.0703125 1.976562 0.140625 2.417969 0.140625 C 2.769531 0.140625 3.050781 -0.140625 3.050781 -0.492188 C 3.050781 -0.636719 2.980469 -0.757812 2.929688 -0.828125 C 2.714844 -1.039062 2.679688 -1.269531 2.679688 -1.65625 L 2.679688 -12.101562 C 2.679688 -12.488281 2.382812 -12.789062 1.992188 -12.789062 C 1.605469 -12.789062 1.304688 -12.472656 1.304688 -12.101562 Z M 1.304688 -1.65625 "/></g></g></g><g fill="#093064" fill-opacity="1"><g transform="translate(181.355209, 266.056096)"><g/></g></g><g fill="#093064" fill-opacity="1"><g transform="translate(186.646248, 266.056096)"><g><path d="M 2.59375 -2.804688 L 7.054688 -2.804688 L 7.816406 -0.351562 C 7.902344 -0.0351562 8.238281 0.175781 8.503906 0.175781 C 8.925781 0.175781 9.242188 -0.105469 9.242188 -0.527344 C 9.242188 -0.601562 9.226562 -0.742188 9.207031 -0.792969 L 5.769531 -11.675781 C 5.59375 -12.222656 5.363281 -12.613281 4.832031 -12.613281 C 4.320312 -12.613281 4.074219 -12.207031 3.917969 -11.675781 L 0.476562 -0.792969 C 0.457031 -0.742188 0.441406 -0.601562 0.441406 -0.527344 C 0.441406 -0.105469 0.777344 0.175781 1.183594 0.175781 C 1.429688 0.175781 1.746094 -0.0351562 1.851562 -0.351562 Z M 4.832031 -10.160156 L 6.648438 -4.179688 L 3.015625 -4.179688 Z M 4.832031 -10.160156 "/></g></g></g><g fill="#093064" fill-opacity="1"><g transform="translate(196.328841, 266.056096)"><g><path d="M 4.074219 -9.066406 C 1.957031 -9.066406 0.917969 -7.671875 0.917969 -5.839844 C 0.917969 -4.796875 1.253906 -3.933594 1.871094 -3.351562 C 1.339844 -2.875 1.199219 -2.328125 1.199219 -1.90625 C 1.199219 -1.5 1.324219 -0.953125 1.730469 -0.546875 C 1.128906 0.0351562 0.792969 0.707031 0.792969 1.570312 C 0.792969 3.28125 2.1875 4.285156 4.179688 4.285156 C 6.261719 4.285156 7.796875 3.191406 7.796875 1.410156 C 7.796875 -0.351562 6.28125 -1.183594 4.269531 -1.183594 L 3.527344 -1.183594 C 3.140625 -1.183594 2.574219 -1.339844 2.574219 -1.957031 C 2.574219 -2.167969 2.628906 -2.46875 2.789062 -2.769531 C 3.191406 -2.609375 3.652344 -2.539062 4.179688 -2.539062 C 6.296875 -2.539062 7.375 -3.917969 7.375 -5.714844 L 7.375 -6.808594 C 7.375 -7.671875 7.65625 -7.867188 8.324219 -8.519531 C 8.378906 -8.574219 8.449219 -8.695312 8.449219 -8.871094 C 8.449219 -9.226562 8.167969 -9.492188 7.796875 -9.492188 C 7.410156 -9.492188 6.773438 -9.191406 6.386719 -8.46875 C 5.714844 -8.855469 4.886719 -9.066406 4.074219 -9.066406 Z M 5.996094 -6.792969 L 5.996094 -5.679688 C 5.996094 -4.515625 5.433594 -3.808594 4.179688 -3.808594 C 2.859375 -3.808594 2.292969 -4.605469 2.292969 -5.804688 C 2.292969 -7.109375 2.945312 -7.832031 4.25 -7.832031 C 4.902344 -7.832031 5.484375 -7.636719 6.03125 -7.304688 C 6.015625 -7.144531 5.996094 -6.96875 5.996094 -6.792969 Z M 3.5625 0.0898438 L 4.304688 0.0898438 C 5.714844 0.0898438 6.421875 0.511719 6.421875 1.445312 C 6.421875 2.503906 5.484375 3.015625 4.214844 3.015625 C 2.859375 3.015625 2.167969 2.433594 2.167969 1.375 C 2.167969 0.8125 2.347656 0.371094 2.769531 0 C 3 0.0546875 3.261719 0.0898438 3.5625 0.0898438 Z M 3.5625 0.0898438 "/></g></g></g><g fill="#093064" fill-opacity="1"><g transform="translate(205.023776, 266.056096)"><g><path d="M 4.09375 -1.074219 C 2.824219 -1.074219 2.167969 -1.710938 2.167969 -2.699219 L 2.167969 -3.738281 C 2.789062 -3.632812 3.441406 -3.582031 3.96875 -3.582031 C 6.066406 -3.582031 6.949219 -4.570312 6.949219 -6.191406 C 6.949219 -7.9375 5.980469 -9.066406 4.023438 -9.066406 C 1.921875 -9.066406 0.792969 -7.777344 0.792969 -6.085938 L 0.792969 -2.789062 C 0.792969 -1.128906 1.941406 0.140625 3.933594 0.140625 C 4.886719 0.140625 6.792969 -0.140625 6.792969 -1.003906 C 6.792969 -1.324219 6.527344 -1.621094 6.175781 -1.621094 C 6.050781 -1.621094 5.960938 -1.585938 5.925781 -1.570312 C 5.308594 -1.289062 4.832031 -1.074219 4.09375 -1.074219 Z M 5.59375 -6.191406 C 5.59375 -5.46875 5.363281 -4.746094 4.023438 -4.746094 C 3.667969 -4.746094 2.824219 -4.78125 2.167969 -4.867188 L 2.167969 -6.210938 C 2.167969 -7.195312 2.839844 -7.816406 3.988281 -7.816406 C 5.007812 -7.816406 5.59375 -7.339844 5.59375 -6.191406 Z M 5.59375 -6.191406 "/></g></g></g><g fill="#093064" fill-opacity="1"><g transform="translate(212.695768, 266.056096)"><g><path d="M 2.734375 -6.542969 C 2.734375 -6.6875 2.714844 -6.863281 2.679688 -7.054688 C 3.28125 -7.515625 3.953125 -7.796875 4.640625 -7.796875 C 5.699219 -7.796875 6.261719 -7.039062 6.261719 -5.699219 L 6.261719 -0.546875 C 6.261719 -0.175781 6.507812 0.125 6.949219 0.125 C 7.390625 0.125 7.636719 -0.175781 7.636719 -0.546875 L 7.636719 -5.699219 C 7.636719 -7.691406 6.703125 -9.03125 4.832031 -9.03125 C 3.988281 -9.03125 3.085938 -8.785156 2.3125 -8.238281 C 2.117188 -8.539062 1.886719 -8.75 1.570312 -8.75 C 1.199219 -8.75 0.917969 -8.484375 0.917969 -8.132812 C 0.917969 -7.957031 1.003906 -7.851562 1.039062 -7.777344 C 1.199219 -7.515625 1.359375 -7.515625 1.359375 -6.542969 L 1.359375 -0.546875 C 1.359375 -0.175781 1.585938 0.125 2.046875 0.125 C 2.503906 0.125 2.734375 -0.175781 2.734375 -0.546875 Z M 2.734375 -6.542969 "/></g></g></g><g fill="#093064" fill-opacity="1"><g transform="translate(221.672891, 266.056096)"><g><path d="M 0.792969 -3.105469 C 0.792969 -1.289062 1.746094 0.140625 3.953125 0.140625 C 4.78125 0.140625 6.402344 -0.105469 6.402344 -0.933594 C 6.402344 -1.253906 6.140625 -1.535156 5.804688 -1.535156 C 5.714844 -1.535156 5.628906 -1.515625 5.519531 -1.480469 C 5.097656 -1.269531 4.710938 -1.074219 4.09375 -1.074219 C 2.714844 -1.074219 2.167969 -1.816406 2.167969 -3.105469 L 2.167969 -5.769531 C 2.167969 -7.054688 2.714844 -7.796875 4.09375 -7.796875 C 4.710938 -7.796875 5.097656 -7.601562 5.519531 -7.390625 C 5.628906 -7.355469 5.714844 -7.339844 5.804688 -7.339844 C 6.140625 -7.339844 6.402344 -7.621094 6.402344 -7.9375 C 6.402344 -8.765625 4.78125 -9.015625 3.953125 -9.015625 C 1.746094 -9.015625 0.792969 -7.585938 0.792969 -5.769531 Z M 0.792969 -3.105469 "/></g></g></g><g fill="#093064" fill-opacity="1"><g transform="translate(228.604142, 266.056096)"><g><path d="M 7.003906 -8.113281 C 7.019531 -8.183594 7.039062 -8.253906 7.039062 -8.324219 C 7.039062 -8.730469 6.703125 -9.015625 6.351562 -9.015625 C 6.085938 -9.015625 5.820312 -8.855469 5.714844 -8.554688 L 3.792969 -1.871094 L 1.585938 -8.554688 C 1.480469 -8.855469 1.234375 -9.015625 0.96875 -9.015625 C 0.582031 -9.015625 0.28125 -8.75 0.28125 -8.378906 C 0.28125 -8.308594 0.28125 -8.183594 0.316406 -8.132812 L 3.121094 -0.0351562 C 2.59375 1.605469 2.097656 2.203125 0.988281 2.257812 C 0.582031 2.277344 0.335938 2.59375 0.335938 2.910156 C 0.335938 3.296875 0.636719 3.582031 1.039062 3.582031 C 3.332031 3.527344 4.003906 1.640625 4.851562 -1.109375 Z M 7.003906 -8.113281 "/></g></g></g><g fill="#093064" fill-opacity="1"><g transform="translate(84.204198, 245.682596)"><g><path d="M 6.171875 -0.574219 C 6.171875 -0.855469 5.90625 -1.089844 5.613281 -1.089844 L 2.140625 -1.089844 L 2.140625 -4.410156 L 5.207031 -4.410156 C 5.515625 -4.410156 5.75 -4.644531 5.75 -4.953125 C 5.75 -5.261719 5.484375 -5.5 5.207031 -5.5 L 2.140625 -5.5 L 2.140625 -8.773438 L 5.472656 -8.773438 C 5.78125 -8.773438 6.03125 -9 6.03125 -9.308594 C 6.03125 -9.613281 5.78125 -9.867188 5.472656 -9.867188 L 1.679688 -9.867188 C 1.300781 -9.867188 1.023438 -9.53125 1.023438 -9.207031 L 1.023438 -0.65625 C 1.023438 -0.152344 1.441406 0 1.902344 0 L 5.613281 0 C 5.917969 0 6.171875 -0.25 6.171875 -0.574219 Z M 6.171875 -0.574219 "/></g></g></g><g fill="#093064" fill-opacity="1"><g transform="translate(90.836495, 245.682596)"><g><path d="M 0.742188 -5.179688 C 0.742188 -3.332031 2.601562 -3.234375 3.484375 -2.757812 C 3.765625 -2.601562 4.003906 -2.394531 4.003906 -1.890625 C 4.003906 -1.160156 3.484375 -0.855469 2.714844 -0.855469 C 2.15625 -0.855469 1.707031 -1.023438 1.316406 -1.175781 C 1.273438 -1.191406 1.257812 -1.203125 1.175781 -1.203125 C 0.839844 -1.203125 0.65625 -0.9375 0.65625 -0.699219 C 0.65625 -0.0546875 2 0.113281 2.714844 0.113281 C 4.269531 0.113281 5.066406 -0.671875 5.066406 -1.929688 C 5.066406 -3.75 3.429688 -3.875 2.464844 -4.351562 C 1.988281 -4.589844 1.804688 -4.8125 1.804688 -5.25 C 1.804688 -5.890625 2.195312 -6.226562 3.050781 -6.226562 C 3.554688 -6.226562 3.820312 -6.117188 4.113281 -5.976562 C 4.199219 -5.933594 4.269531 -5.90625 4.367188 -5.90625 C 4.660156 -5.90625 4.871094 -6.144531 4.871094 -6.410156 C 4.871094 -6.996094 3.738281 -7.195312 3.007812 -7.195312 C 1.527344 -7.195312 0.742188 -6.382812 0.742188 -5.179688 Z M 0.742188 -5.179688 "/></g></g></g><g fill="#093064" fill-opacity="1"><g transform="translate(96.517319, 245.682596)"><g><path d="M 1.035156 -2.839844 C 1.035156 -0.910156 1.511719 0.0546875 3.472656 0.0546875 C 3.863281 0.0546875 4.269531 0 4.269531 -0.476562 C 4.269531 -0.921875 3.863281 -0.980469 3.539062 -0.980469 C 3.457031 -0.980469 3.359375 -0.964844 3.273438 -0.964844 C 2.265625 -0.964844 2.128906 -1.496094 2.128906 -2.9375 L 2.128906 -5.722656 L 3.582031 -5.722656 C 3.863281 -5.722656 4.085938 -5.949219 4.085938 -6.242188 C 4.085938 -6.535156 3.863281 -6.757812 3.582031 -6.757812 L 2.128906 -6.757812 L 2.128906 -8.691406 C 2.128906 -8.984375 1.929688 -9.222656 1.582031 -9.222656 C 1.230469 -9.222656 1.035156 -8.984375 1.035156 -8.691406 Z M 1.035156 -2.839844 "/></g></g></g><g fill="#093064" fill-opacity="1"><g transform="translate(101.008816, 245.682596)"><g><path d="M 2.351562 -0.628906 C 2.351562 -1.035156 2.015625 -1.371094 1.609375 -1.371094 C 1.191406 -1.371094 0.855469 -1.035156 0.855469 -0.628906 C 0.855469 -0.210938 1.191406 0.140625 1.609375 0.140625 C 2.015625 0.140625 2.351562 -0.210938 2.351562 -0.628906 Z M 2.351562 -0.628906 "/></g></g></g><g fill="#093064" fill-opacity="1"><g transform="translate(262.80283, 245.682596)"><g><path d="M 3.792969 -0.433594 C 3.792969 -0.140625 4.042969 0.125 4.351562 0.125 C 4.660156 0.125 4.914062 -0.140625 4.914062 -0.433594 L 4.914062 -9.40625 C 4.914062 -9.742188 4.644531 -10.007812 4.308594 -10.007812 C 4.183594 -10.007812 4.085938 -9.976562 3.972656 -9.910156 L 1.21875 -8.144531 C 1.050781 -8.03125 0.964844 -7.851562 0.964844 -7.65625 C 0.964844 -7.402344 1.21875 -7.179688 1.457031 -7.179688 C 1.652344 -7.179688 1.875 -7.332031 2.070312 -7.460938 L 3.792969 -8.566406 Z M 3.792969 -0.433594 "/></g></g></g><g fill="#093064" fill-opacity="1"><g transform="translate(269.798923, 245.682596)"><g><path d="M 5.277344 -4.410156 C 5.277344 -2.464844 4.871094 -0.867188 3.164062 -0.867188 C 2.714844 -0.867188 2.308594 -0.980469 2 -1.078125 C 1.875 -1.121094 1.777344 -1.148438 1.695312 -1.148438 C 1.414062 -1.148438 1.191406 -0.882812 1.191406 -0.628906 C 1.191406 0.0429688 2.855469 0.140625 3.34375 0.140625 C 5.445312 0.140625 6.421875 -1.636719 6.421875 -5.109375 C 6.421875 -8.046875 5.722656 -10.007812 3.429688 -10.007812 C 1.441406 -10.007812 0.574219 -8.535156 0.574219 -6.816406 C 0.574219 -4.730469 1.847656 -3.75 3.386719 -3.75 C 4.015625 -3.75 4.730469 -3.917969 5.277344 -4.410156 Z M 5.304688 -5.597656 C 4.925781 -5.148438 4.210938 -4.8125 3.441406 -4.8125 C 2.378906 -4.8125 1.679688 -5.445312 1.679688 -6.800781 C 1.679688 -7.878906 2.128906 -8.914062 3.386719 -8.914062 C 4.800781 -8.914062 5.304688 -7.613281 5.304688 -5.933594 Z M 5.304688 -5.597656 "/></g></g></g><g fill="#093064" fill-opacity="1"><g transform="translate(276.795017, 245.682596)"><g><path d="M 5.277344 -4.410156 C 5.277344 -2.464844 4.871094 -0.867188 3.164062 -0.867188 C 2.714844 -0.867188 2.308594 -0.980469 2 -1.078125 C 1.875 -1.121094 1.777344 -1.148438 1.695312 -1.148438 C 1.414062 -1.148438 1.191406 -0.882812 1.191406 -0.628906 C 1.191406 0.0429688 2.855469 0.140625 3.34375 0.140625 C 5.445312 0.140625 6.421875 -1.636719 6.421875 -5.109375 C 6.421875 -8.046875 5.722656 -10.007812 3.429688 -10.007812 C 1.441406 -10.007812 0.574219 -8.535156 0.574219 -6.816406 C 0.574219 -4.730469 1.847656 -3.75 3.386719 -3.75 C 4.015625 -3.75 4.730469 -3.917969 5.277344 -4.410156 Z M 5.304688 -5.597656 C 4.925781 -5.148438 4.210938 -4.8125 3.441406 -4.8125 C 2.378906 -4.8125 1.679688 -5.445312 1.679688 -6.800781 C 1.679688 -7.878906 2.128906 -8.914062 3.386719 -8.914062 C 4.800781 -8.914062 5.304688 -7.613281 5.304688 -5.933594 Z M 5.304688 -5.597656 "/></g></g></g><g fill="#093064" fill-opacity="1"><g transform="translate(283.79111, 245.682596)"><g><path d="M 3.5 -9.125 C 4.714844 -9.125 5.207031 -8.257812 5.207031 -7.054688 L 5.207031 -2.769531 C 5.207031 -1.652344 4.605469 -0.894531 3.5 -0.894531 C 2.394531 -0.894531 1.792969 -1.652344 1.792969 -2.769531 L 1.792969 -7.054688 C 1.792969 -8.257812 2.28125 -9.125 3.5 -9.125 Z M 3.5 -10.144531 C 1.539062 -10.144531 0.6875 -8.703125 0.6875 -6.941406 L 0.6875 -2.769531 C 0.6875 -1.148438 1.679688 0.140625 3.5 0.140625 C 5.316406 0.140625 6.3125 -1.148438 6.3125 -2.769531 L 6.3125 -6.941406 C 6.3125 -8.703125 5.457031 -10.144531 3.5 -10.144531 Z M 3.5 -10.144531 "/></g></g></g></svg>